<?xml version="1.0" encoding="UTF-8" standalone="no"?>
<!-- Generator: Adobe Illustrator 18.1.0, SVG Export Plug-In . SVG Version: 6.00 Build 0)  -->

<svg
   xmlns:dc="http://purl.org/dc/elements/1.1/"
   xmlns:cc="http://creativecommons.org/ns#"
   xmlns:rdf="http://www.w3.org/1999/02/22-rdf-syntax-ns#"
   xmlns:svg="http://www.w3.org/2000/svg"
   xmlns="http://www.w3.org/2000/svg"
   xmlns:sodipodi="http://sodipodi.sourceforge.net/DTD/sodipodi-0.dtd"
   xmlns:inkscape="http://www.inkscape.org/namespaces/inkscape"
   version="1.1"
   id="Layer_1"
   x="0px"
   y="0px"
   viewBox="0 0 576 576"
   enable-background="new 0 0 576 576"
   xml:space="preserve"
   inkscape:version="0.47 r22583"
   width="100%"
   height="100%"
   sodipodi:docname="ScienceVikingLogo_Final_Color_No_Words.svg"><metadata
   id="metadata290"><rdf:RDF><cc:Work
       rdf:about=""><dc:format>image/svg+xml</dc:format><dc:type
         rdf:resource="http://purl.org/dc/dcmitype/StillImage" /><dc:title></dc:title></cc:Work></rdf:RDF></metadata><defs
   id="defs288"><inkscape:perspective
     sodipodi:type="inkscape:persp3d"
     inkscape:vp_x="0 : 288 : 1"
     inkscape:vp_y="0 : 1000 : 0"
     inkscape:vp_z="576 : 288 : 1"
     inkscape:persp3d-origin="288 : 192 : 1"
     id="perspective292" /></defs><sodipodi:namedview
   pagecolor="#ffffff"
   bordercolor="#666666"
   borderopacity="1"
   objecttolerance="10"
   gridtolerance="10"
   guidetolerance="10"
   inkscape:pageopacity="0"
   inkscape:pageshadow="2"
   inkscape:window-width="1228"
   inkscape:window-height="773"
   id="namedview286"
   showgrid="false"
   inkscape:zoom="0.40972222"
   inkscape:cx="288"
   inkscape:cy="288"
   inkscape:window-x="0"
   inkscape:window-y="0"
   inkscape:window-maximized="0"
   inkscape:current-layer="Layer_1" />
<path
   fill="#8B5E3C"
   d="M311.8,146.6c-1.4-1.5-3.4-2.8-5.2-3.5c-1.9-0.8-4.8-1.5-6.8-1.1c-1.4,0.3-3.3,3.9-0.3,7.4  c0.4,0,1.7-0.1,2,0c0.6,0.1,1.2,0.3,1.8,0.5c1.2,0.6,2,1.5,2.7,2.6c1.7,2.7,3,6.8,2,9.9c-0.9,2.8-3.8,4.5-6.6,4.7  c-3.5,0-5.3-4.7-2.1-6.7c1.9-1.1,3.5-0.6,3.9,1.4c1.8-1.8,1.1-4.4-1.2-5.3c-1.5-0.4-4.1,0-5.2,1.6c-4.1,4.3-2.6,11.2,4.4,12.6  c7.9,1.7,14-5,14.4-12.4c0.2-3.4-1-8.1-3-10.9C312.3,147.1,312.1,146.8,311.8,146.6z"
   id="path3"
   inkscape:export-filename="D:\Dropbox\ScienceVikingLabs\ScienceVikingLogo_Final_Color_No_Words.png"
   inkscape:export-xdpi="90"
   inkscape:export-ydpi="90" />
<path
   fill="#603913"
   d="M272.6,125.9c-2.2-0.7-4.4-1.2-6.6-1.4c-5.5-0.5-10.5-0.2-14.9,2.8c-0.4,1.9-0.3,4,0,5.4  c0.5,2.7,2.1,5.7,2.1,5.7c0.6-1.9,1.7-2.1,3.3-3.3c2.9-2,6.8-1.5,10.2-0.6c2.8,0.7,5.6,1.5,7.8,3.3c-0.6-3.1-1.2-6.2-1.8-9.4  C272.6,127.5,272.6,126.7,272.6,125.9z"
   id="path5"
   inkscape:export-filename="D:\Dropbox\ScienceVikingLabs\ScienceVikingLogo_Final_Color_No_Words.png"
   inkscape:export-xdpi="90"
   inkscape:export-ydpi="90" />
<g
   id="g7"
   inkscape:export-filename="D:\Dropbox\ScienceVikingLabs\ScienceVikingLogo_Final_Color_No_Words.png"
   inkscape:export-xdpi="90"
   inkscape:export-ydpi="90">
	<g
   id="XMLID_2_">
		<g
   id="g10">
			<path
   fill="#00AEEF"
   d="M305.5,177c-0.2-0.3-0.4-0.5-0.6-0.7c-0.7-0.9-1.4-1.2-2.4-0.9c-1.1,0.4-2.3,0.4-3.5,0.6     c-1.2,0.2-2.3,0.4-3.5,0.6c-1.3,0.2-2.4-0.7-2.7-2.1c-0.2-1.3,0.4-2.4,1.7-2.8c0.9-0.2,1.8-0.4,2.7-0.5c0.9-0.2,1.7-0.3,2.8-0.5     c-0.9-1.1-1.7-2.1-2.5-3c-0.2-0.1-0.4-0.1-0.6-0.1c-2.2-0.4-4.4,0.8-6.2,2.2c-1.6,1.2-3.3,2.8-5.2,2.5c-1.4-0.2-2.4-1.2-3.7-1.8     c-3.3-1.7-6.7-0.3-10,0.5c-3.5,0.9-7.3,1.8-10.9,0.8c-2.2-0.6-4.2-1.9-6.4-2.4c-1.8-0.4-3.8-0.3-5.6,0.3     c-1.9,5.1-3.9,10.3-5.8,15.4c-1,2.6-1.7,5.4-1.5,8.3c0.1,1.4,0.3,2.8,0.8,4c0.6,1.6,1.6,2.9,3.3,3.8c1.5,0.8,3,0.8,4.6,0.6     c17.1-2.9,34.3-5.8,51.4-8.7c0.6-0.1,1.2-0.2,1.7-0.3c4.5-1.1,6.6-5.2,5.1-9.7C308,180.7,306.8,178.8,305.5,177z"
   id="path12" />
			<path
   fill="#E6E7E8"
   d="M254.7,169.3c2.2,0.5,4.2,1.8,6.4,2.4c3.6,1,7.4,0.1,10.9-0.8c3.3-0.8,6.7-2.2,10-0.5     c1.2,0.6,2.3,1.7,3.7,1.8c2,0.3,3.7-1.3,5.2-2.5c1.8-1.4,4-2.5,6.2-2.2c0.2,0,0.4,0.1,0.6,0.1c-1-1.2-2-2.4-2.9-3.5     c-0.2-0.2-0.7-0.2-1-0.1c-2.7,0.4-5.4,1-8.1,1.4c-1.2,0.2-2.3-0.9-2.5-2.2c-0.2-1.3,0.5-2.4,1.8-2.7c0.9-0.2,1.8-0.3,2.8-0.5     c1-0.2,2-0.3,3.2-0.6c-0.9-1.2-1.9-2.3-2.7-3.3c-1.1-1.3-2-2.5-2.9-3.6c-3.4,0.6-6.4,1.2-9.5,1.6c-1.1,0.1-2-0.9-2.2-2.1     c-0.2-1.1,0.4-2.2,1.5-2.6c0.4-0.1,0.7-0.2,1.1-0.2c1.8-0.3,3.6-0.6,5.6-1c-1.3-1.6-2.4-3-3.6-4.3c-1.4-1.7-3-3.3-3.2-5.8     c0-0.1-0.1-0.1-0.2-0.2c-0.1,0-0.3,0-0.5,0c-1.7,0.3-3.5,0.6-5.2,0.9c-1.3,0.2-2.3-0.6-2.5-1.9c-0.3-1.4,0.2-2.4,1.5-2.8     c0.6-0.2,1.2-0.3,1.8-0.4c1.4-0.2,2.8-0.5,4-0.7c-0.6-3.5-1.1-6.8-1.8-10.1c0-0.2-0.6-0.5-0.8-0.5c-1.6,0.2-3.3,0.6-4.9,0.8     c-1.2,0.2-2.2-0.6-2.5-1.9c-0.3-1.3,0.2-2.4,1.4-2.8c0.7-0.2,1.3-0.3,2-0.5c1.2-0.2,2.5-0.4,3.8-0.7c-0.7-3.6-1.1-7.1-0.2-10.5     c-6.5,1.1-12.9,2.2-19.4,3.3c1.6,2.5,2.6,5,3,7.8c1.4,7.9,2.8,15.8,4.2,23.7c0.2,0.9,0.1,2.1-0.2,2.9c-2.1,5.7-4.3,11.4-6.4,17.1     c-1,2.6-2,5.2-2.9,7.8C250.9,169,252.9,168.9,254.7,169.3z"
   id="path14" />
			<path
   fill="#527889"
   d="M312,179.3c-1.3-3.1-3.4-5.4-5.4-7.9c-8.9-10.8-17.8-21.6-26.7-32.4c-0.3-0.3-0.5-0.8-0.6-1.2     c-1.5-7.9-3-15.7-4.5-23.6c-0.6-3.1-0.1-5.9,1.4-8.5c1.2-2.2,0.8-3.6-1.3-4.6c-9.7,1.7-19.5,3.3-29.2,5c-1.8,1.6-1.8,3.2,0.2,4.8     c2.3,1.9,3.7,4.4,4.3,7.5c1.4,7.8,2.8,15.6,4.1,23.4c0.1,0.6,0,1.2-0.2,1.8c-5,13.2-9.9,26.4-14.9,39.5c-1.1,3-1.8,6-1.8,9.3     c0,0.3,0,0.6,0,0.9c0,0.2,0,0.5-0.1,0.7c0.2,1.2,0.4,2.5,0.6,3.7c0.1,0.1,0.2,0.2,0.2,0.4c2.3,6.5,6.9,9.6,12.9,8.6     c13.5-2.3,27.1-4.6,40.6-6.9c3.9-0.7,7.9-1.3,11.8-2c3-0.6,5.8-1.9,7.7-4.6c0.1-0.2,0.3-0.4,0.4-0.6     C314.3,188.4,314,183.9,312,179.3z M258.5,144.7c0.3-0.9,0.4-2,0.2-2.9c-1.4-7.9-2.8-15.8-4.2-23.7c-0.5-2.8-1.4-5.4-3-7.8     c6.5-1.1,12.9-2.2,19.4-3.3c-0.9,3.5-0.6,6.9,0.2,10.5c-1.3,0.2-2.6,0.4-3.8,0.7c-0.7,0.1-1.4,0.2-2,0.5     c-1.2,0.4-1.7,1.5-1.4,2.8c0.3,1.3,1.2,2,2.5,1.9c1.6-0.2,3.3-0.6,4.9-0.8c0.3,0,0.8,0.2,0.8,0.5c0.6,3.3,1.2,6.6,1.8,10.1     c-1.3,0.2-2.6,0.4-4,0.7c-0.6,0.1-1.2,0.2-1.8,0.4c-1.2,0.4-1.8,1.5-1.5,2.8c0.3,1.3,1.3,2.1,2.5,1.9c1.7-0.3,3.5-0.6,5.2-0.9     c0.2,0,0.3,0,0.5,0c0.1,0.1,0.2,0.1,0.2,0.2c0.2,2.5,1.8,4.1,3.2,5.8c1.2,1.4,2.3,2.8,3.6,4.3c-2,0.3-3.8,0.6-5.6,1     c-0.4,0.1-0.7,0.1-1.1,0.2c-1,0.4-1.6,1.4-1.5,2.6c0.2,1.2,1.1,2.3,2.2,2.1c3.1-0.4,6.2-1,9.5-1.6c0.9,1.1,1.9,2.3,2.9,3.6     c0.9,1.1,1.8,2.2,2.7,3.3c-1.2,0.2-2.2,0.4-3.2,0.6c-0.9,0.2-1.8,0.3-2.8,0.5c-1.2,0.3-1.9,1.4-1.8,2.7c0.2,1.3,1.2,2.4,2.5,2.2     c2.7-0.4,5.4-0.9,8.1-1.4c0.3-0.1,0.8-0.1,1,0.1c1.8,2.1,3.5,4.2,5.4,6.6c-1.1,0.2-1.9,0.3-2.8,0.5c-0.9,0.2-1.8,0.3-2.7,0.5     c-1.3,0.4-2,1.4-1.7,2.8c0.2,1.4,1.3,2.2,2.7,2.1c1.2-0.1,2.3-0.4,3.5-0.6c1.2-0.2,2.3-0.3,3.5-0.6c1.1-0.4,1.7,0,2.4,0.9     c0.2,0.2,0.4,0.5,0.6,0.7c1.4,1.8,2.5,3.7,3.2,5.9c1.5,4.5-0.6,8.6-5.1,9.7c-0.6,0.1-1.1,0.2-1.7,0.3     c-17.1,2.9-34.3,5.8-51.4,8.7c-1.6,0.3-3.1,0.3-4.6-0.6c-1.6-0.9-2.6-2.2-3.3-3.8c-0.5-1.2-0.7-2.6-0.8-4     c-0.2-2.9,0.5-5.7,1.5-8.3c2.9-7.7,5.8-15.5,8.7-23.2C254.2,156.1,256.3,150.4,258.5,144.7z"
   id="path16" />
		</g>
	</g>
</g>
<path
   fill="#603913"
   d="M307.2,13.3c-3.2,0.4-2.7,2.3-2,3.9c7.1,1.2,11.9,9,14.8,15.4c1,2.4,0.2,5.8-1.7,7.5  c0.3,3.7,2.8,4.9,5.5,4.7c1.5-1.4,2.4-3.3,2.4-5.2C326.3,27.8,317.5,18.2,307.2,13.3z"
   id="path18"
   inkscape:export-filename="D:\Dropbox\ScienceVikingLabs\ScienceVikingLogo_Final_Color_No_Words.png"
   inkscape:export-xdpi="90"
   inkscape:export-ydpi="90" />
<path
   fill="#754C29"
   d="M213.9,396.7c0,0-18.1,16.7-12.4,32.1c0,0,2.5-11.8,12.8-15.2c10.3-3.4,5.7-16.1,5.7-16.1L213.9,396.7z"
   id="path20"
   inkscape:export-filename="D:\Dropbox\ScienceVikingLabs\ScienceVikingLogo_Final_Color_No_Words.png"
   inkscape:export-xdpi="90"
   inkscape:export-ydpi="90" />
<path
   fill="#8B5E3C"
   d="M297.7,72.8c1.5-14.9,1.7-28.4-20.7-45.8c-4.7-3.7-10.4-5.5-16.6-4.2c-9,2.8-15.9,9-17.3,18.7  c5.5-8.3,16.6-13.2,25.6-7.6c13.9,9,18.3,31.2,23.8,44.8C295.8,84.2,297.7,72.8,297.7,72.8z"
   id="path22"
   inkscape:export-filename="D:\Dropbox\ScienceVikingLabs\ScienceVikingLogo_Final_Color_No_Words.png"
   inkscape:export-xdpi="90"
   inkscape:export-ydpi="90" />
<path
   fill="#754C29"
   d="M300,74.8c0.2-4.1,1.1-8.9,5.5-10.3c1.9-0.6,3.9-0.6,5.9-0.3c4.4,0.7,8.7,2.2,13.2,2.6  c1.8,0.2,3.6,0.2,5.3-0.3c7.2-2,6.4-10.8,3.2-15.9c0,1.4,0.4,2.7,0.6,4.1c0.2,1.7,0,3.5-1.5,4.5c-1.4,1-3.2,1.1-4.8,0.9  c-5.1-0.7-9-4.6-14.1-5.3c-5.2-0.7-10.8,0.6-15.2,3.3c-4,2.4-7,6-9.3,10c-0.3,0.5-0.6,1-0.8,1.6c-2.1,4.9-1.5,7.8-0.1,12.6  c1.4,4.2,12,7.8,14.8,2.2c1.4-2.1-2.1-3.5-2.7-5.3C299.8,78.8,300.1,75.2,300,74.8z"
   id="path24"
   inkscape:export-filename="D:\Dropbox\ScienceVikingLabs\ScienceVikingLogo_Final_Color_No_Words.png"
   inkscape:export-xdpi="90"
   inkscape:export-ydpi="90" />
<g
   id="g26"
   inkscape:export-filename="D:\Dropbox\ScienceVikingLabs\ScienceVikingLogo_Final_Color_No_Words.png"
   inkscape:export-xdpi="90"
   inkscape:export-ydpi="90">
	<path
   fill="#D1B1A1"
   d="M292.2,381.8L292.2,381.8c-33.5,0-60.8-27.4-60.8-60.8v-49.5c0-33.5,27.4-60.8,60.8-60.8h0   c33.5,0,60.8,27.4,60.8,60.8V321C353,354.4,325.6,381.8,292.2,381.8z"
   id="path28" />
</g>
<path
   fill="#603913"
   d="M467.5,214.5c-0.6-3.5-1.3-7-2.2-10.4c-1-5.5-2.5-10.7-4.4-15.7c-1.9-5-4.2-9.8-7-14.2  c-7.1-13.4-17.5-23.8-30.7-30c-6.1-2.9-12.7-5.4-19.6-7.8c-19-6.9-39.5-12.7-58.1-21.6c-6.2-3-12.2-6.3-17.8-10.2  c-16.9-12.6-31-31.3-35.9-52c-3.6-1.1-7.9,0.6-9.7,5.9c2.5,23.4,12.5,45.9,27.5,63.9c3.5,4.2,7.4,8,11.5,11.7  c4.1,3.6,8.6,7,13.3,10.1c15.2,10.4,31.9,15.2,47.8,22.2c6.3,2.8,12.5,5.9,18.1,9.5c16.8,10.7,28.7,25.6,26.9,49.6  c-0.1,6.4-0.8,12.9-2.1,18.8c-0.7,3.2-1.5,6.4-2.4,9.6c-4.1,14.1-11.4,27.2-21.8,38.1C361.9,305.3,353,271,353,271l-5.6,0l-1.5,47.6  c-4.6,3.8-9.6,6.4-16.8,8.5c-10.9,3.3-20.5,4.7-25.9,5.4l-11,11c0,0-11-11-11-11c-3.8,0-17.4-0.8-29-5.4c-6.3-2.5-10.5-4.8-13.3-6.8  c-0.4-15.1,0-30.2-1-45.4l-6.5-3.9c-9.1,19.1-32.3,27.2-51,19.6c-1.9-2.3-3.7-4.7-5.2-7.2c-13.2-20.8-14.6-45.7-4.2-67.2  c9-16.6,29.8-19.4,46.4-16.9c4.9,0.3,9.8,0.8,14.6,1.1c4.8,0.4,9.4,0.6,13.8,0.5c7.6,0,15.4-2.9,21.8-7.9  c10.8-8.8,22.1-28.2,21.4-42c-1.4,0.7-7.3,8.3-7.3,9c-5.5,12.5-20.7,19.4-33.9,18c-4.6-0.3-9.3-0.8-14.1-1.3  c-23.8-2.7-49-7.1-70.3,2c-5.1,2.2-10,5.1-14.6,9c-28.5,25.8-30.7,67.3-16.5,101.8c1.3,3.2-6-0.5-7.5,6.6  c4.6-0.7,15.6,9.5,17.7,12.7c1.9,2.9,4,5.7,6.2,8.4c13.2,14.6,30.5,26.3,50.6,25.6c-9,3.5-18.7,1.4-27,4.9  c-5.5,2.1-11.1,4.2-16.6,2.1c9,5.5,20.1,4.2,30.5,4.9c-5.5,13.9-34.3,32.2-46.3,31c0,0,8.1,6.7,15,3.3c-0.3,0.4-7.1,13.2-1.8,30.5  c0,0,3.1-27.1,23.7-34.3c0,0-13.3,15.7-5.2,26.3c0,0,3.7-14.1,16.1-17.2c0,0,19.7,2.5,11.8,9.5c-22.7,4.6-13.7,30.8-6.6,40.1  c0,0-4-31.6,22.3-39.7l5.5,20.2c0,0,6.5,12.6,14.3,14.4c-3.7-8.4,0.1-24.5,9.7-35c8.2-8.9,10-22,10.4-25.7l0.1,0  c1.4-12.9,4.8-22.3,8.7-29.1c2.4,0.2,4.7,0.4,6.9,0.5l20.4,19.5l11.7-10.9c-2.2,7.2-5.4,17.4-9.2,29.2c-8.8,27,16.8,49.2,16.8,49.2  s0.7-5.4,2.1-22.7c1.5-18.8,1.2-45.5-3.8-61.1l0.2-0.2c3.8,0.8,8,1.5,12.6,2.1c3.4,8.2,5.9,19.4,6.1,34.4  c14.4,28.3,15.6,47.3,15.2,55.9c-0.5,8.6-3.9,12.9-4,13c2.2-1.2,5.5-3.7,7.1-6.1c5.3-8.2,7.6-31.5,7.6-31.5  c4.8,10.2,18,12.8,18,12.8s5.9,6.3,4.2,13.2c0,0,1.6-1.7,3.3-4.7c0-0.3,5-13.5,0,0c3.4-5.7,7.7-16.1,3.6-28.2  c0,0,15.9,4.1,19.1,19.7c0,0,17-19.4-4.9-46.1c0,0,14.9,8,23.1,30.7c0,0,7.5-9.6-3.7-28.6c0,0-6.1-26.6,8.3-17.7  c0,0,28.1,6.2,35,1.7c-4,2.6-19.1-5.9-23.2-7.5c-11.3-4.4-21.8-9.1-31.5-16.8c15.7-4.4,28.9-15.9,37.8-29.5c1.7-2.6,3.3-5.4,4.8-8.2  c1.5-2.8,2.9-5.8,4.3-8.7c5.5-11.2,9.7-23.1,12.4-35.4c0.7-3.1,1.3-6.2,1.7-9.3C469.2,243.3,469.7,228.6,467.5,214.5z"
   id="path30"
   inkscape:export-filename="D:\Dropbox\ScienceVikingLabs\ScienceVikingLogo_Final_Color_No_Words.png"
   inkscape:export-xdpi="90"
   inkscape:export-ydpi="90" />
<path
   fill="#603913"
   d="M286.9,126.2c-1.1-1.2-2.4-2.1-3.7-2.8c-2.2-1.1-4.8-1.4-7.1-2.3l2.1,11.1c6.9,6.9,8.3,18,4.1,26.3  c2.1-0.7,4.9-1.4,4.9-2.8c0-0.6,0.7-1.6,0.9-2.1c0.3-0.8,0.6-1.6,0.8-2.3c0.5-1.6,0.8-3.1,1.3-4.7c1.1-3.3,1.9-6.7,1.6-10.2  C291.4,132.9,289.6,129,286.9,126.2z"
   id="path32"
   inkscape:export-filename="D:\Dropbox\ScienceVikingLabs\ScienceVikingLogo_Final_Color_No_Words.png"
   inkscape:export-xdpi="90"
   inkscape:export-ydpi="90" />
<path
   fill="#8B5E3C"
   d="M410.7,346.4c0,0,11.6,3.4,28.7-2.5c0,0-7,10.8-21.2,11.4C407.9,346.9,410.7,346.4,410.7,346.4z"
   id="path34"
   inkscape:export-filename="D:\Dropbox\ScienceVikingLabs\ScienceVikingLogo_Final_Color_No_Words.png"
   inkscape:export-xdpi="90"
   inkscape:export-ydpi="90" />
<g
   id="XMLID_3_"
   inkscape:export-filename="D:\Dropbox\ScienceVikingLabs\ScienceVikingLogo_Final_Color_No_Words.png"
   inkscape:export-xdpi="90"
   inkscape:export-ydpi="90">
	<g
   id="g37">
		<path
   fill="#8B5E3C"
   d="M356.4,157.2c-17.4,3.1-26.8-11.3-32.5-26c-1.9-4.9-3.4-9.8-4.6-14.2c6.9,3.1,14.4,6.8,20.6,11.7    c6.2,5,11.3,11.2,13.4,19.6C355.4,153.5,356.4,157.2,356.4,157.2z"
   id="path39" />
		<path
   fill="#8B5E3C"
   d="M386.1,127.5c6.5,1,15.9,2.1,23.4,4.4c7.5,2.3,17.5,7.1,16.1,13.3c-1.4,5.7-8.8,7.6-12.8,8.9    c-4,1.3-9,0.7-14.3-0.8c-11.2-2.3-19.5-10-29.9-14.8c4.2-2.8,8.3-5.5,12.4-7.7C384.1,129,386.1,127.5,386.1,127.5z"
   id="path41" />
		<path
   fill="#8B5E3C"
   d="M439.3,201.6c-4.2,6.3-13.2,16.7-19.4,10.4c-12.5-11.1-9.7-31.2,2.8-41.6c2.1,6.2,9.7,9.7,15.7,10.6    C444.6,188.3,443,195.7,439.3,201.6z"
   id="path43" />
		<path
   fill="#8B5E3C"
   d="M468.6,240.6c0,0,0.7,2.9,1,7.8c1.5-1.2,6.3-3.9,10.4,1.9c-8.5-0.7-6.6,6.3-11.1,15.5    c-2.6,5.3-1.8,9-2.9,11.5c1.7-1.3,6.4-3.5,9.5,2.7c-4.5-3-12.9,5-17,13.1c-1.4,2.7-3.6,5-5.7,7.4c0,0-3.3-7.4-5.7-17.7    c-2.8-11.8-4.5-27.6,1.3-40.5c3-3.1,5.2-6.7,6-10.8C461.6,237.3,468.6,240.6,468.6,240.6z"
   id="path45" />
		<path
   fill="#8B5E3C"
   d="M400.7,292.2c0,0,10.9,2.3,22.3,1.8c-8.8,7.5-12.1,18.7-13.1,28.8c-39,14.1-36.5-8.5-36.5-8.5    c2.3-4.8,5.2-8.5,8.2-11.5c3-3,6.1-5.1,9-6.7C396.2,293,400.7,292.2,400.7,292.2z"
   id="path47" />
		<path
   fill="#754C29"
   d="M386.1,127.5c-13.4,17.2-44.5,12.7-54.9-4.6c5.1-0.8,11.6-3.9,15.4-8.1c-0.8-2.3-1.6-6.3,2.1-10.9    c1.1,11,13.7,8.3,23.6,12.3C376.8,118.6,381.6,122.1,386.1,127.5z"
   id="path49" />
		<path
   fill="#754C29"
   d="M413.6,151.1c13.9,4.8,12.5,24.9,1.4,31.8c-6.9,4.2-15.2,4.2-22.9,3.5c1.4-3.5,6.2-4.9,5.5-6.2    c-4.9-5.5-15.2-2.8-18.7,4.2c-1.4-7.6,6.2-11.8,9-16.6c3.5-7.6-2-14.6-5.4-21.7c4.8,3.6,10.3,6.5,16.1,6.9    C403.9,153,409.1,152.2,413.6,151.1z"
   id="path51" />
		<path
   fill="#754C29"
   d="M458.1,181.8c0,0,6.3,6.4,10.8,16.9c4.5,10.5,7.1,25.2-0.4,41.8c0,0-7-3.3-14.1-9.1    c-4.4-3.5-8.8-7.9-11.8-13c-3-5.1-4.7-10.8-3.4-17c3.7-5.9,5.3-13.2-0.9-20.5C448.1,183.6,458.1,181.8,458.1,181.8z"
   id="path53" />
		<path
   fill="#754C29"
   d="M448.4,242.3c-5.7,12.9-4.1,28.7-1.3,40.5c-4.1,8.1-14.3,10.7-24.1,11.2c-11.4,0.6-22.3-1.8-22.3-1.8    c-0.1-5,1.1-9.7,3.1-13.9c1.9-4.2,4.6-7.9,7.2-11c5.3-6.2,10.7-9.9,10.7-9.9S438.8,252.4,448.4,242.3z"
   id="path55" />
		<path
   fill="#603913"
   d="M301.3,98.2c0.7,2.2,0.7,3.6,0.7,5.7c-10.4-5.5-5.5-19.4-12.5-27.7C300.6,76.9,301.3,90,301.3,98.2    L301.3,98.2z"
   id="path57" />
		<path
   fill="#603913"
   d="M346.4,115c-5.2,5.2-8.6,9.1-15.3,7.9c-6.7-1.2-16.7-7.6-19.5-14.4c-1.4-3.6,1.4-7.2,4.1-9.2    c6.9-4,15.3,0.4,21.8,4.5C340.6,106,343.6,109.4,346.4,115z"
   id="path59" />
		<path
   fill="#8B5E3C"
   d="M294.3,85c7.6-0.1,7.9-6.6,20.5,6.4c4.8,4.9,8.9,7,3.3,13.2c-4.4,4.8-11.8,2.5-14.5-2.4    c-2.7-4.8-5.6-8.5-5.9-13.9c0-0.8-2.6-0.9-3.9-1.6L294.3,85z"
   id="path61" />
		<path
   fill="#603913"
   d="M388.9,168.5c-5.7,2.3-12.1,3.3-17.9,2.2c-5.2-0.3-8.6-3.1-11.4-6.5c-6.9-9.7-6.2-21.1-14.6-29.4    c3.5,2.1,6.9,1.7,10.4,2.4c9.7,1.4,23.6-0.7,28.3,10.6C389.3,156.8,388.9,168.5,388.9,168.5z"
   id="path63" />
		<path
   fill="#754C29"
   d="M327,138.4c-5-0.8-9.4-2.9-13-5.9c-3.6-3-6.5-6.8-8.6-11.2c-4.8-9.2-9.2-20.2-7.1-29.9    c6.2,8.3,18.3,15.9,21.2,26.5C323.5,127.5,327,138.4,327,138.4z"
   id="path65" />
		<path
   fill="#603913"
   d="M454.4,231.5c-0.8,4.1-3.1,7.7-6,10.8c-4.8,5-11.5,8.8-17,11.3c-5.5,2.5-9.8,3.8-9.8,3.8    c-2.7-4.7-3.3-9.6-3.3-14.6c-0.1-5,0.5-10,0.1-14.9c-0.7-9.7-1.1-10.3-9.7-10.9c1.4-2.8,1.6-3.4,4.3-4.8c4.7-1.2,3.2-0.2,7.7-0.2    c7.6-0.1,14.5-0.9,18.4-10.5c-2.1,5.6,0,11.8,3.4,16.9C445.6,223.6,450.1,228,454.4,231.5z"
   id="path67" />
		<path
   fill="#603913"
   d="M447.1,282.8c2.4,10.3,5.7,17.7,5.7,17.7s-21.7,40-58.4,38.8c0,0,14.3-3.6,15.5-16.4    c1-10.1,4.3-21.3,13.1-28.8C432.8,293.5,443.1,290.9,447.1,282.8z"
   id="path69" />
	</g>
</g>
<g
   id="XMLID_1_"
   inkscape:export-filename="D:\Dropbox\ScienceVikingLabs\ScienceVikingLogo_Final_Color_No_Words.png"
   inkscape:export-xdpi="90"
   inkscape:export-ydpi="90">
	<g
   id="g72">
		<path
   fill="#603913"
   d="M287.9,160c-2.7,5,0.2,10.4-4.6,13.9c-3.1-4-2.8-7.6-0.3-12C284.1,159.9,287.9,160,287.9,160z"
   id="path74" />
		<path
   fill="#754C29"
   d="M279.3,163.1c1.3-1.5,3.3-1.7,3.3-1c2.8,7.6-7.9,18.8-14.2,11.9c0.6-2.4,2.5-4.4,3.3-5.1    C274.2,166.7,276.1,163.9,279.3,163.1z"
   id="path76" />
		<path
   fill="#603913"
   d="M268.5,174c3.1-0.1,6,0.5,8.8,0.5c-6.9,10.4-23,9.8-31.4,2.9c4.2-3.5,9.7-3.5,14.8-4.1    C265.2,173.3,268.5,174,268.5,174z"
   id="path78" />
		<path
   fill="#754C29"
   d="M269.7,181.1c-4.6,8.6-7.2,21.9-19,23.9c-3.1,0.7-6.6,0.2-9.9-0.8c-3.3-1-6.4-2.5-8.8-3.9    c1.6-1.7,3.4-3.5,5.4-5.3c6.4-5.3,14-9.5,21.9-11.3C262.7,184.6,267.3,183.5,269.7,181.1z"
   id="path80" />
		<path
   fill="#8B5E3C"
   d="M283.3,173.6c0,10.7-10.4,23.9-21.5,23.2c1.4-12.5,11-19.8,20-26.9C282.2,171.8,283.3,173.6,283.3,173.6z"
   id="path82" />
		<path
   fill="#8B5E3C"
   d="M259.4,183.9c-8.6,5.3-20.4,6.7-29.4,1.3c-2.2-1.2-4.2-2.6-6.2-4.2c-2-1.7-3.8-3.5-5.6-5.6    c2.1-1.4,4.3-2.2,6.6-2.5c2.3-0.3,4.6-0.2,7,0.1c6.6,1,13.5,3.1,18.4,7C252.7,181.4,256,183.1,259.4,183.9z"
   id="path84" />
		<path
   fill="#603913"
   d="M248.1,188c-2.7,3.2-6.7,6.9-10,9.2c-3.3,2.3-6.9,4-10.7,5c-7.5,2-15.5,1.1-22.4-4.1    c2.8-3.5,6.1-7.1,9.9-9.9s8.3-4.7,13.3-4.7c2.9,2,6.1,3.9,9.4,5.1C240.9,189.7,245.1,189.1,248.1,188z"
   id="path86" />
		<path
   fill="#754C29"
   d="M218,175.1c2.9,3.6,7.4,5,10.2,8.4c-4.9,0-9.4,3.5-13.5,4.2c-11.1,2.1-20.4-7.1-28.7-14    c6.2-3.5,14.2-3.3,21.3-1.8C213.4,173.1,218,175.1,218,175.1z"
   id="path88" />
		<path
   fill="#8B5E3C"
   d="M195.8,181.9c5.7,3.7,11.9,7.2,18.9,6.5c-4.2,3.8-9,9.2-13.9,12.5c-4.9,3.3-9.8,4.7-14.4,0.6    c-2.8-2.1,0.5-10.3,3.8-15.1C191.7,184.3,193.5,182.6,195.8,181.9z"
   id="path90" />
		<path
   fill="#603913"
   d="M212.9,311.1c-9.3,12.5-28.7,16.7-37,4.9c-4.2-5.5-4.2-15.2-9.7-20.8c13.2-2.1,26.3-3.5,37.2,5.2    C206.8,302.9,210.1,306.4,212.9,311.1z"
   id="path92" />
		<path
   fill="#603913"
   d="M185.8,174.3c0.2-0.4,2.8-6.1,0.9-11.7c-1.2-3.5-2.9-6.9-5.4-9.6c-3.5-3.9-9.3-8-14.7-7.9    c-4.6,0.1-9.8,1.9-12.5,5.8c-0.7,1-1.2,2.1-1.4,3.3c-0.7,3.9-0.3,9.3,4.2,10.7c1.4,0.4,3,0.5,4.5,0.3c0.7-0.1,1.4-0.2,2-0.4    c0.5-0.2,1.2-0.7,1.3-1.3c-2.2,0.2-4,1-6-0.5c-1.5-1.2-2.4-3.2-2-5.1c0.4-2.5,3.7-6.2,8.9-5.5c5.9,0.7,10,5.7,10.4,10    c0.2,2.6,0.3,5.4-1.1,7.6c-2,3.2-6.4,4.9-9.6,6.6c-1.9,1-3.8,2-5.7,3.1c-0.4,0.2-4.6,3.1-4.6,3.1c5.9,4.8,12.7,6.5,20,6.3    c7.2-0.2,14.5-2.7,20.3-7C189.5,175.4,185.8,174.3,185.8,174.3z"
   id="path94" />
		<path
   fill="#754C29"
   d="M191.4,184.3c-6.7,9-3.8,24.2-14.2,31.2c-4.2,2.8-7.6-0.7-10.4-4.2c-4.9-6.9-4.9-16.6,0.8-23.1    C173.5,189.6,182.3,187.7,191.4,184.3z"
   id="path96" />
		<path
   fill="#754C29"
   d="M168,267.9c10,4.4,18.3,17.5,11.4,23.8c-7.6,6.9-27.7,5.5-30.5-6.2c-2.1-6.9,0.7-16.6-1-24.9    C155.5,269,168,267.9,168,267.9z"
   id="path98" />
		<path
   fill="#8B5E3C"
   d="M165.2,237.4c1.7-1.9,0.8-1.8,7.5-3.9c-5.1,5.9-4.5,14.5-2.4,19.3c0.7-1.2,2.1-2.9,4.3-1.6    c-1.2,1-1.6,3-2.3,4.4c-1.4,4.2-1.4,9-4.9,11.1c-10.4,5.5-25.6-5.5-24.3-16.6c2.1-9,9.4-15.4,11.7-24.6    C158.3,232.4,165.2,237.4,165.2,237.4z"
   id="path100" />
		<path
   fill="#754C29"
   d="M156.7,207.5c-3.1,12.4,1.8,28.7-10.7,38.4c-6.2,5.5-15.9,9.7-21.5,4.9c-10.4-10.4,4.1-25.7,2.7-38.8    c-0.7-3.5-3.2-6.7-6.9-6.3c4.9-3.5,12.3-3.6,12.9,2C133.4,207.6,147.2,213.1,156.7,207.5z"
   id="path102" />
		<path
   fill="#603913"
   d="M147.9,260.5c3.7,13.8,1,35.3-10.8,35.3c-15.2-0.7-18.7-27.7-11.1-41.6c0.6-0.9-0.6-16.1,11.3-19    c-6.7,7.1-1,15.3,2.3,14.3c1.6-0.5,3.1-1,4.3-1.6C143.9,252.9,145.4,257,147.9,260.5L147.9,260.5z"
   id="path104" />
		<path
   fill="#603913"
   d="M171.3,215.6c1.3,7.1,0.7,14.4-6.1,21.8c-8-2.7-10.8-5.5-12.8-10.7c-2-5.2-2.3-12.6,1.3-17    c2.6-4.1,9.5-6.9,10.3-11.6C163.6,207.9,171.3,215.6,171.3,215.6z"
   id="path106" />
		<path
   fill="#8B5E3C"
   d="M167.6,188.2c-0.1,0.7,0.3,6.5-3.6,12.2c-2.4,3.5-8.8,9.9-16.6,12.3c-6.2,1.4-14.6-0.7-14.6-7.6    c-0.7-11.8,11.8-19.4,22.1-22.7C155,182.4,159.5,186.5,167.6,188.2z"
   id="path108" />
		<path
   fill="#8B5E3C"
   d="M174.5,316.4c0,6.5-0.7,16.2-4.9,16.9c-12.5,2.8-23.6-9-29.8-21.5c-5.5-11.1,3-20.3,8.5-28.6    c4.2,6.2,8.4,12.8,18.5,12.7C172.9,303.2,174.4,309.8,174.5,316.4z"
   id="path110" />
	</g>
</g>
<path
   fill="#754C29"
   d="M232.9,283.5c-14.3,16.6-43.9,17-66,12.3c11.3,4.2,21.9,6.1,34.5,7.5c14,1.3,27.2-3.2,37.1-13.5  c1.3-1.5,4.6-5.1,1-6.9C237,282.4,232.9,283.5,232.9,283.5z"
   id="path112"
   inkscape:export-filename="D:\Dropbox\ScienceVikingLabs\ScienceVikingLogo_Final_Color_No_Words.png"
   inkscape:export-xdpi="90"
   inkscape:export-ydpi="90" />
<path
   fill="#754C29"
   d="M349.4,270.9c0,0-2.1,38.5,37.8,27.3c0,0-23,18-43.6-5.8C341,289.5,349.4,270.9,349.4,270.9z"
   id="path114"
   inkscape:export-filename="D:\Dropbox\ScienceVikingLabs\ScienceVikingLogo_Final_Color_No_Words.png"
   inkscape:export-xdpi="90"
   inkscape:export-ydpi="90" />
<polygon
   fill="#FFFFFF"
   points="251.4,294.4 276.1,304 276.1,306.5 272.8,309.7 268.4,310.9 262.5,310.1 257,307.3 255,302.6   254.6,298.3 "
   id="polygon116"
   inkscape:export-filename="D:\Dropbox\ScienceVikingLabs\ScienceVikingLogo_Final_Color_No_Words.png"
   inkscape:export-xdpi="90"
   inkscape:export-ydpi="90" />
<path
   fill="#39B54A"
   d="M273.5,302.5c0,3-2.8,5.4-6.2,5.4c-3.4,0-6.2-2.4-6.2-5.4c0-1.2,0.4-2.3,1.2-3.2  C265,300.1,269.5,301.3,273.5,302.5z"
   id="path118"
   inkscape:export-filename="D:\Dropbox\ScienceVikingLabs\ScienceVikingLogo_Final_Color_No_Words.png"
   inkscape:export-xdpi="90"
   inkscape:export-ydpi="90" />
<polygon
   fill="#FFFFFF"
   points="307.9,304.2 329.8,295.7 329.8,298.2 329.4,300.9 328.4,305.1 325.8,307.8 321.7,309.9 317.2,310.9   313.3,310.9 310.2,307.8 "
   id="polygon120"
   inkscape:export-filename="D:\Dropbox\ScienceVikingLabs\ScienceVikingLogo_Final_Color_No_Words.png"
   inkscape:export-xdpi="90"
   inkscape:export-ydpi="90" />
<path
   fill="#39B54A"
   d="M311.3,302.5c0,3,2.8,5.4,6.2,5.4c3.4,0,6.2-2.4,6.2-5.4c0-1.2-0.4-2.3-1.2-3.2  C319.7,300.1,315.2,301.3,311.3,302.5z"
   id="path122"
   inkscape:export-filename="D:\Dropbox\ScienceVikingLabs\ScienceVikingLogo_Final_Color_No_Words.png"
   inkscape:export-xdpi="90"
   inkscape:export-ydpi="90" />
<g
   id="g124"
   inkscape:export-filename="D:\Dropbox\ScienceVikingLabs\ScienceVikingLogo_Final_Color_No_Words.png"
   inkscape:export-xdpi="90"
   inkscape:export-ydpi="90">
	<path
   fill="#AFA283"
   d="M202.7,168.6c7.1-12-2.3-19.3-2.3-19.3c22.3,6.6,24,21.3,17.5,38.6s-2.1,24.2,2.1,30.1   c4.2,5.9,19.5,10.8,19.5,10.8l-15.4,29c-25.6-12.5-38.1-33.3-38.8-47.6C184.2,188.9,195.6,180.5,202.7,168.6z"
   id="path126" />
</g>
<g
   id="g128"
   inkscape:export-filename="D:\Dropbox\ScienceVikingLabs\ScienceVikingLogo_Final_Color_No_Words.png"
   inkscape:export-xdpi="90"
   inkscape:export-ydpi="90">
	<path
   fill="#AFA283"
   d="M363.2,217.8c1.9-2.7,3.9-5.6,4.8-9.7l4.4-2.9l1.5,5.6l2.3-1.4l0.8,5.5l7.2-4.4l0,7.4l6-2.5l1.5,3.9l4.5-3   l0.1,2.8c-4.4,13.1-16.6,28.4-37.1,38.5l-15.5-29.1C343.7,228.7,359,223.8,363.2,217.8z"
   id="path130" />
</g>
<g
   id="g132"
   inkscape:export-filename="D:\Dropbox\ScienceVikingLabs\ScienceVikingLogo_Final_Color_No_Words.png"
   inkscape:export-xdpi="90"
   inkscape:export-ydpi="90">
	<path
   fill="#414042"
   d="M247.5,227.4l-11.6-6.3c0,0-17.3,17.8-17.3,38.8l13.2,5.9L247.5,227.4z"
   id="path134" />
</g>
<g
   id="g136"
   inkscape:export-filename="D:\Dropbox\ScienceVikingLabs\ScienceVikingLogo_Final_Color_No_Words.png"
   inkscape:export-xdpi="90"
   inkscape:export-ydpi="90">
	<path
   fill="#58595B"
   d="M292.2,280.7c-45,0-60.8-9.7-60.8-9.7v40.5c12.3,6.9,21.6,4.8,21.6,4.8v-9.2c-11.2-5.8-10-20.8-10-20.8   c16.6,8.5,38.3,14.6,38.3,14.6c4.9,25.8,0,31.7,0,31.7l11,11l11-11c0,0-4.9-5.9,0-31.7c0,0,21.7-6.1,38.3-14.6c0,0,1.2,15-10,20.8   v9.2c0,0,9.2,2.2,21.6-4.8V271C353,271,337.2,280.7,292.2,280.7z"
   id="path138" />
</g>
<g
   id="g140"
   inkscape:export-filename="D:\Dropbox\ScienceVikingLabs\ScienceVikingLogo_Final_Color_No_Words.png"
   inkscape:export-xdpi="90"
   inkscape:export-ydpi="90">
	<path
   fill="#414042"
   d="M337.1,227.3l11.7-6.3c0,0,17.4,17.9,17.4,39l-13.2,6L337.1,227.3z"
   id="path142" />
</g>
<g
   id="g144"
   inkscape:export-filename="D:\Dropbox\ScienceVikingLabs\ScienceVikingLogo_Final_Color_No_Words.png"
   inkscape:export-xdpi="90"
   inkscape:export-ydpi="90">
	<path
   fill="#6D6E71"
   d="M305,209.9v-2.3h-25.7v2.3c-27.6,5.7-49.4,30.1-49.4,59l1.4,2.1c0,0,15.8,11.8,60.8,11.8S353,271,353,271   l1.4-2.1C354.4,239.9,332.6,215.6,305,209.9z"
   id="path146" />
</g>
<path
   fill="#3C2415"
   d="M335.5,292.3c-0.1,0-0.2,0-0.3,0c-0.2,0-0.3,0-0.5,0c-0.2,0-0.4,0.1-0.6,0.2l-25.7,9.9  c-0.7,0.3-1.3,0.8-1.6,1.5c-0.3,0.7-0.3,1.5,0,2.2c0.1,0.3,2.8,6.3,9.9,6.3c1.7,0,3.5-0.4,5.4-1.1c2.2-0.8,3.8-1.8,5.1-2.8  c3.4-2.9,6.8-7.7,7.6-8.5c0.8-0.9,2.3-2.8,2.4-2.9c0.5-0.5,0.8-1.2,0.8-1.9C338,293.6,336.9,292.4,335.5,292.3z M328.4,297.8  c-0.9,2.7,1.4,7.5-7.2,10.9c-1.7,0.6-3.1,0.9-4.4,0.9c-5.3,0-7.3-4.6-7.3-4.6l3.5-1.4c0,0,1.4,2.7,4.4,2.2c2.5-0.5,3.7-2,3.6-5.3  L328.4,297.8z"
   id="path148"
   inkscape:export-filename="D:\Dropbox\ScienceVikingLabs\ScienceVikingLogo_Final_Color_No_Words.png"
   inkscape:export-xdpi="90"
   inkscape:export-ydpi="90" />
<path
   fill="#3C2415"
   d="M277.4,303.9c-0.3-0.7-0.9-1.2-1.6-1.5l-25.8-9.9c-0.3-0.1-0.7-0.2-1-0.2c-1.1,0-2.1,0.7-2.6,1.8  c-0.4,1-0.2,1.8,0.6,2.9c0.8,1.1,6.7,11.1,15.1,14.3c1.9,0.7,3.7,1.1,5.4,1.1c7.1,0,9.7-6,9.9-6.3  C277.7,305.3,277.7,304.6,277.4,303.9z M267.5,309.5c-1.3,0-2.7-0.3-4.4-0.9c-8.7-3.3-6.4-8.2-7.2-10.9l7.4,2.7  c-0.2,3.3,1,4.8,3.6,5.3c3,0.6,4.4-2.2,4.4-2.2l3.5,1.4C274.8,304.9,272.9,309.5,267.5,309.5z"
   id="path150"
   inkscape:export-filename="D:\Dropbox\ScienceVikingLabs\ScienceVikingLogo_Final_Color_No_Words.png"
   inkscape:export-xdpi="90"
   inkscape:export-ydpi="90" />
<g
   id="g152"
   inkscape:export-filename="D:\Dropbox\ScienceVikingLabs\ScienceVikingLogo_Final_Color_No_Words.png"
   inkscape:export-xdpi="90"
   inkscape:export-ydpi="90">
	<path
   fill="#414042"
   d="M306.4,207.1h-28.5l1.8,93.7c4.9,25.8,0,31.7,0,31.7l12.4,12.4l12.4-12.4c0,0-4.9-5.9,0-31.7L306.4,207.1z"
   id="path154" />
</g>
<circle
   fill="#AFA283"
   cx="292.4"
   cy="221.6"
   r="4.5"
   id="circle156"
   inkscape:export-filename="D:\Dropbox\ScienceVikingLabs\ScienceVikingLogo_Final_Color_No_Words.png"
   inkscape:export-xdpi="90"
   inkscape:export-ydpi="90" />
<circle
   fill="#AFA283"
   cx="292.4"
   cy="245.5"
   r="4.5"
   id="circle158"
   inkscape:export-filename="D:\Dropbox\ScienceVikingLabs\ScienceVikingLogo_Final_Color_No_Words.png"
   inkscape:export-xdpi="90"
   inkscape:export-ydpi="90" />
<circle
   fill="#AFA283"
   cx="292.4"
   cy="269.3"
   r="4.5"
   id="circle160"
   inkscape:export-filename="D:\Dropbox\ScienceVikingLabs\ScienceVikingLogo_Final_Color_No_Words.png"
   inkscape:export-xdpi="90"
   inkscape:export-ydpi="90" />
<circle
   fill="#AFA283"
   cx="292.4"
   cy="293.1"
   r="4.5"
   id="circle162"
   inkscape:export-filename="D:\Dropbox\ScienceVikingLabs\ScienceVikingLogo_Final_Color_No_Words.png"
   inkscape:export-xdpi="90"
   inkscape:export-ydpi="90" />
<path
   fill="#754C29"
   d="M257.2,433c0,0,0.8,1.5,1.6,4c-3.5,13.3-9.2,18-9.2,18c0.8-2.7-0.2-5.7-2-8.8  C251.6,444.2,255.8,440.4,257.2,433z"
   id="path164"
   inkscape:export-filename="D:\Dropbox\ScienceVikingLabs\ScienceVikingLogo_Final_Color_No_Words.png"
   inkscape:export-xdpi="90"
   inkscape:export-ydpi="90" />
<path
   fill="#754C29"
   d="M300.9,385.3c-9.3,26.8,9.7,51.2,9.7,51.2c-4.7,8.6-5.7,11.7-15,18.2c1.5-9.8-8.9-18.2-8.9-18.2  c-4.3,14.2-11.3,15.2-11.3,15.2c0.3-8.2-2.5-15.2-5.6-20.5c0.5-5,0.6-10.7,0-17.4c-2.4-29,0.9-58.1,18.4-68.4  c1.2-0.7,1.7-1.2,3.9-1.2s2.6,0.5,3.8,1.2c4.5,2.7,8,6.7,10.6,11.6C306.6,357,307.8,365.4,300.9,385.3z"
   id="path166"
   inkscape:export-filename="D:\Dropbox\ScienceVikingLabs\ScienceVikingLogo_Final_Color_No_Words.png"
   inkscape:export-xdpi="90"
   inkscape:export-ydpi="90" />
<path
   fill="#754C29"
   d="M378,415.1c4.8,8.9,12.5,17.5,7.5,31c0-0.3,0.9-11.2-11.3-23.9c-8.7-9-16-19.1-21.4-30.4  c-4.7-9.8-9.6-20.5-9.6-31.5c0-3.9,1.2-7.6,2.5-11.2c3.5-9.7,3.1-20.6,0-30.5c0.2,0.5,1.3,1.3,1.7,1.8c0.6,0.7,1.1,1.4,1.6,2.1  c1,1.4,1.9,3,2.7,4.5c1.6,3.3,2.4,6.6,1.9,10.2c-0.5,3.9-1.5,7.7-2.2,11.5c-0.9,4.8-1.5,9.7-1.4,14.7c0,6.7,1.4,13,4.6,18.9  c2.9,5.3,6.4,10.1,10.1,14.9C369.3,403,374.6,408.6,378,415.1z"
   id="path168"
   inkscape:export-filename="D:\Dropbox\ScienceVikingLabs\ScienceVikingLogo_Final_Color_No_Words.png"
   inkscape:export-xdpi="90"
   inkscape:export-ydpi="90" />
<path
   fill="#8B5E3C"
   d="M371.6,433c2.1,18.3-11.1,18.8-11.1,18.8c6.6-14.2,0.2-19.5,0.2-19.5c-0.4,14.1-3.8,15.9-9,18.7  c7.5-16.9-3.3-47.1-3.3-47.1C353.2,414,371.6,433,371.6,433z"
   id="path170"
   inkscape:export-filename="D:\Dropbox\ScienceVikingLabs\ScienceVikingLogo_Final_Color_No_Words.png"
   inkscape:export-xdpi="90"
   inkscape:export-ydpi="90" />
<path
   fill="#754C29"
   d="M327.8,389c14.4,28.3,16.8,50.6,15.4,61.3c-1.5-1.3-5-7.2-7.3-11.8c-1.1-9.2-4.4-17.3-6.4-21.4  c-1.1-7-1.8-15.4-1.8-25.8C327.9,390.5,327.9,389.7,327.8,389L327.8,389z"
   id="path172"
   inkscape:export-filename="D:\Dropbox\ScienceVikingLabs\ScienceVikingLogo_Final_Color_No_Words.png"
   inkscape:export-xdpi="90"
   inkscape:export-ydpi="90" />
<path
   fill="#754C29"
   d="M342,448.1c-1,6.5-2.9,9.7-3,9.8c0,0,0,0,0,0c-3.5,1.9-6.2,2.2-6.2,2.2c2.1-4.3,3.2-8.8,3.4-13.3  C338.5,447.6,340.5,447.9,342,448.1z"
   id="path174"
   inkscape:export-filename="D:\Dropbox\ScienceVikingLabs\ScienceVikingLogo_Final_Color_No_Words.png"
   inkscape:export-xdpi="90"
   inkscape:export-ydpi="90" />
<path
   fill="#754C29"
   d="M255.3,378.1L255.3,378.1c-0.3,4.1-0.6,8.5-0.6,13.2c0.1,29.1-5.5,43.6-10.1,50.6c-2.9-0.4-4.7-0.1-8.4-8.3  s-3-19.2,6.6-29.7C250.9,395.1,254.9,381.8,255.3,378.1z"
   id="path176"
   inkscape:export-filename="D:\Dropbox\ScienceVikingLabs\ScienceVikingLogo_Final_Color_No_Words.png"
   inkscape:export-xdpi="90"
   inkscape:export-ydpi="90" />
<path
   fill="#C48E53"
   d="M338,426c1.1-20.5,0.6-24.4,0-49.7c-1.2-47.4-33.4-43.8-33.4-43.8l-12.4,11.7l-12.4-11.7  c0,0-30.7,2.4-34.8,40.3c-0.4,4.1,1.9,22.2,1.9,26.9c0.1,29.1-6.1,52.2-10.8,59.3c-3.3,4.9-6,6.2-6,6.2s5.8,3.9,14.7,1  c8.5-2.8,10.6-7.8,12.1-15.3c0,0,0.8,1.5,1.6,4c1.6,4.4,1.5,9.6-1.8,17.3c0,0,24.6-2.7,22.7-44.4c-1.3-28.9-7.2-69.7,8.7-81.9  c1.2-0.9,2.7-1.6,4.1-1.6s2.9,0.7,4,1.5c3.7,2.7,5.6,6.6,8.1,11.3c7.3,13.9,6.2,49.5,3.5,70.8c-5.4,42.2,22.7,45.1,22.7,45.1  c-8.6-11.2-5.6-21.9-5.6-21.9c0.2,0.9,0.3,1.7,0.6,2.5c9.7,19.2,25.6,12.5,27.1,12.6C352.6,465.6,336.9,446.7,338,426z"
   id="path178"
   inkscape:export-filename="D:\Dropbox\ScienceVikingLabs\ScienceVikingLogo_Final_Color_No_Words.png"
   inkscape:export-xdpi="90"
   inkscape:export-ydpi="90" />
<path
   fill="#8B5E3C"
   d="M224.4,355.7c5.5-13.3,16.7-7.8,13.7-36.1c0,0,13.4,22.2-5.5,39.3c-9.3,8.4,0,20.7-19,31.9  C224.6,372.5,219.3,368.1,224.4,355.7z"
   id="path180"
   inkscape:export-filename="D:\Dropbox\ScienceVikingLabs\ScienceVikingLogo_Final_Color_No_Words.png"
   inkscape:export-xdpi="90"
   inkscape:export-ydpi="90" />
<path
   fill="#8B5E3C"
   d="M228.2,427.5c2.8,18-11.1,24.3-11.1,24.3s0.3-14.6-5.2-23.9s3.5-23.6,3.5-23.6s6.1-2.3,12.8-10.9  C216.5,412.6,225.4,409.5,228.2,427.5z"
   id="path182"
   inkscape:export-filename="D:\Dropbox\ScienceVikingLabs\ScienceVikingLogo_Final_Color_No_Words.png"
   inkscape:export-xdpi="90"
   inkscape:export-ydpi="90" />
<path
   fill="#8B5E3C"
   d="M209.2,384.7c-0.5,8.4-0.1,15.4-9.2,20.8c-23.1,8.2-20.5,36.3-20.1,36.9c-17.6-21.2,9-48.8,9-48.8  S196.7,378.4,209.2,384.7z"
   id="path184"
   inkscape:export-filename="D:\Dropbox\ScienceVikingLabs\ScienceVikingLogo_Final_Color_No_Words.png"
   inkscape:export-xdpi="90"
   inkscape:export-ydpi="90" />
<path
   fill="#8B5E3C"
   d="M362.9,350.2c0,0-7.1,16.4,2.5,27.2c9.5,10.9,15.7,27.8,17.6,36c0,0,6.2-19.7-6.5-33.2  C363.8,366.8,365.2,369.7,362.9,350.2z"
   id="path186"
   inkscape:export-filename="D:\Dropbox\ScienceVikingLabs\ScienceVikingLogo_Final_Color_No_Words.png"
   inkscape:export-xdpi="90"
   inkscape:export-ydpi="90" />
<path
   fill="#754C29"
   d="M238,319.6c-3.7-3.3-6.6-8.1-6.6-8.1c-10.5-0.5-17.8,0.4-29.7-4.7c2.2,5,5.1,8,9,9.9  c-8.7,1.3-20.3,2.3-34.7,1.9c0,0,12.5,8.3,28.4,6.2c0,0-13.9,4.5-35,5.9c-24.2,1.6-30.3,5.2-36.8-9.3c-6.3-14.2-20-2.5-21.1-1.8  c0.8-0.4,10.8-5.7,14.2,5.6c3.5,11.8,9.1,23.8,51.3,20.7c0,0,20,4.2,28.2-7.9c-2.6,3.1-5.8,13.2-22.6,15.9c0,0,0,0-0.1,0  c-1.6,0.5-44.3,19-61.7-2.8c0.5,0.7,5.3,28.5,52.8,21.1c0,0,8.1-0.2,17.1-3.4l0,0c8.8-3.2,18.5-9.2,22.5-20.8  C215,323.9,234.5,319.6,238,319.6z"
   id="path188"
   inkscape:export-filename="D:\Dropbox\ScienceVikingLabs\ScienceVikingLogo_Final_Color_No_Words.png"
   inkscape:export-xdpi="90"
   inkscape:export-ydpi="90" />
<path
   fill="#754C29"
   d="M455.5,336c-2.4-2.1-8.7-12.8,10.7-7.3c0,0-8.3-10.7-19.4-5.5c-11.1,5.2-2.4,13.4,1,16.6  c5.9,5.5,9.7,15.6-3.8,14.2c-13.5-1.4-21.1,0-40.2-14.2c0,0,8.3,0.3,12.5-7.3c0,0-21.8,6.6-33.3-1.4c0,0,28.6-1,32.3-12.6  c0,0-19.5,5.1-35.7,1.3c3.6-4.1,2.5-8.9,2.5-8.9c-7,8.6-29.2,0.7-29.2,0.7c9.4,4.5,15.8,15,15.8,15l0,0c2.5,6.3,8.2,16,20.8,25.1  c21,15.1,26.8,37.3,26.8,37.3s19.3,7.1,23.5,18.2c0,0,10.5-22-15.2-35.9c-19.6-13.8-18.1-20.3-18.1-20.3s13.8,13.1,27.8,13  c0,0,24.6,2.8,31.5-6.2C472.8,348.8,457.9,338.1,455.5,336z"
   id="path190"
   inkscape:export-filename="D:\Dropbox\ScienceVikingLabs\ScienceVikingLogo_Final_Color_No_Words.png"
   inkscape:export-xdpi="90"
   inkscape:export-ydpi="90" />
<path
   fill="#8B5E3C"
   d="M300.3,141.9c-9.4-0.4-14.6,7.7-18.6,16.2c-1.5,3.1,3,2.4,4.8,0.7c5.1-3.1,7.2-8.7,13.1-9.5  c1.4-0.3,1.7-1.5,2.4-3.3C302.1,144.7,301.4,142.6,300.3,141.9z"
   id="path192"
   inkscape:export-filename="D:\Dropbox\ScienceVikingLabs\ScienceVikingLogo_Final_Color_No_Words.png"
   inkscape:export-xdpi="90"
   inkscape:export-ydpi="90" />
<path
   fill="#754C29"
   d="M300.2,128.6c-0.5-3.5-2.7-6-5.9-7.5c0.6,0.3,0.7,2.5,0.7,3c0.1,1.3,0,2.6-0.1,3.9c-0.3,2.7-0.9,5.3-1.7,7.9  c-1.3,4-3.1,8.2-5.3,11.8c-2,3.2-4.5,6.2-6.3,9.6l6.1,2c1.9-2.4,4-4.9,5.2-6.9c2.9-4.8,5-10.5,6.5-15.9  C300,133.9,300.6,131.3,300.2,128.6z"
   id="path194"
   inkscape:export-filename="D:\Dropbox\ScienceVikingLabs\ScienceVikingLogo_Final_Color_No_Words.png"
   inkscape:export-xdpi="90"
   inkscape:export-ydpi="90" />
<path
   fill="#B8AF93"
   d="M288.5,158.2c-2.5-1.9-2.6-2.1-6.2-2.2c-1.7,1.4-3,4.5-3,7.1c2,2,4,3,7.3,2.5  C288,163.5,288.9,161,288.5,158.2z"
   id="path196"
   inkscape:export-filename="D:\Dropbox\ScienceVikingLabs\ScienceVikingLogo_Final_Color_No_Words.png"
   inkscape:export-xdpi="90"
   inkscape:export-ydpi="90" />
<path
   fill="#B8AF93"
   d="M300.6,74.2c-8-0.6-11.1,2.4-14,5.4c-1.2,4.2-0.2,10.8,4.6,12.5c3.9,1.3,14-1.2,16.6-7.2  C308.3,81.9,304.7,74.1,300.6,74.2z"
   id="path198"
   inkscape:export-filename="D:\Dropbox\ScienceVikingLabs\ScienceVikingLogo_Final_Color_No_Words.png"
   inkscape:export-xdpi="90"
   inkscape:export-ydpi="90" />
<path
   fill="#603913"
   d="M251.3,127.2c-6.4,4.4-10.5,12.8-9.2,20.6c0.6,3.2,2.2,6.2,3.8,9c1.5,2.6,3.6,5,6.3,6.4  c4.9,2.5,12.1,1.5,16.5-1.7c4-3,5-7.8,3.5-12.4c-0.1-0.4-1-1.9-0.9-2.2c-1,3.2-2.5,7.1-6.3,7.7c-3.6,0.6-9.5-0.6-11.7-3.8  c-1.5-2.2-1.4-6-1.2-8.6c0.1-1.4,0.5-2.9,1.1-4.3c0,0-0.5-2.7-1-5.3C251.8,129.8,251.3,127.2,251.3,127.2z"
   id="path200"
   inkscape:export-filename="D:\Dropbox\ScienceVikingLabs\ScienceVikingLogo_Final_Color_No_Words.png"
   inkscape:export-xdpi="90"
   inkscape:export-ydpi="90" />
<path
   fill="#603913"
   d="M458,132c-1.5-8-10.5-11.5-17.4-10.1c-12.5,2.8-9.7,18.7-17.3,26.3c-2.1,2.8-6.2,2.8-9.7,2.8  c10.4,3.5,7.6,15.9,12.5,22.9c6.2,9.7,24.9,14.6,30.5,4.9c6.9-11.1-7.6-20.1-13.9-29.8c-3.5-5.5-6.9-15.2,0-19.4  c3.5-1.4,8.3,0,9.7,4.2c0,1.4,0,2.8,0,4.2c-1.4,3.5-4.9,1.4-7.6,1.4c2.8,4.9,10.4,6.2,12.9,0.4C458.5,137.3,458.6,134.4,458,132z"
   id="path202"
   inkscape:export-filename="D:\Dropbox\ScienceVikingLabs\ScienceVikingLogo_Final_Color_No_Words.png"
   inkscape:export-xdpi="90"
   inkscape:export-ydpi="90" />
<g
   id="g204"
   inkscape:export-filename="D:\Dropbox\ScienceVikingLabs\ScienceVikingLogo_Final_Color_No_Words.png"
   inkscape:export-xdpi="90"
   inkscape:export-ydpi="90">
	<g
   id="g206">
		<circle
   fill="#C7A9D0"
   cx="135.8"
   cy="20"
   r="13.7"
   id="circle208" />
	</g>
	<path
   fill="#FFFFFF"
   d="M142.9,13.5c0.8,3.7,0.5,6-1,9.3c-2.5,5.4-9.2,8.2-7.7,8.2c4.5,0.1,8.9-2.4,10.8-6.7   c2.1-4.6,0.9-9.8-2.5-13C141.6,10.4,142.5,11.4,142.9,13.5z"
   id="path210" />
</g>
<g
   id="g212"
   inkscape:export-filename="D:\Dropbox\ScienceVikingLabs\ScienceVikingLogo_Final_Color_No_Words.png"
   inkscape:export-xdpi="90"
   inkscape:export-ydpi="90">
	<g
   id="g214">
		<circle
   fill="#C7A9D0"
   cx="161.4"
   cy="65.2"
   r="8.9"
   id="circle216" />
	</g>
	<path
   fill="#FFFFFF"
   d="M165.7,61c0.5,2.4,0.4,3.9-0.6,6.1c-1.6,3.5-5.9,5.3-5,5.4c2.9,0.1,5.7-1.6,7-4.4c1.3-3,0.6-6.4-1.7-8.5   C164.9,59,165.4,59.6,165.7,61z"
   id="path218" />
</g>
<g
   id="g220"
   inkscape:export-filename="D:\Dropbox\ScienceVikingLabs\ScienceVikingLogo_Final_Color_No_Words.png"
   inkscape:export-xdpi="90"
   inkscape:export-ydpi="90">
	<path
   fill="#EC008C"
   d="M267.1,88.5c0,4.8-3.8,8.6-8.6,8.6c-4.8,0-8.6-3.8-8.6-8.6c0-4.8,2.4-13.2,8.8-18.1   C257.9,77.3,267.1,81.2,267.1,88.5z"
   id="path222" />
</g>
<path
   fill="#FFFFFF"
   d="M262.3,84.1c0.5,2.3,0.4,3.8-0.6,5.9c-1.5,3.4-5.7,5.2-4.8,5.2c2.8,0.1,5.5-1.5,6.8-4.3  c1.3-2.9,0.5-6.1-1.6-8.2C261.5,82.1,262,82.7,262.3,84.1z"
   id="path224"
   inkscape:export-filename="D:\Dropbox\ScienceVikingLabs\ScienceVikingLogo_Final_Color_No_Words.png"
   inkscape:export-xdpi="90"
   inkscape:export-ydpi="90" />
<g
   id="g226"
   inkscape:export-filename="D:\Dropbox\ScienceVikingLabs\ScienceVikingLogo_Final_Color_No_Words.png"
   inkscape:export-xdpi="90"
   inkscape:export-ydpi="90">
	<g
   id="g228">
		<circle
   fill="#C7A9D0"
   cx="214.7"
   cy="60.8"
   r="16.7"
   id="circle230" />
	</g>
	<path
   fill="#FFFFFF"
   d="M222.8,51.9c1.4,4.4,1.4,7.2,0,11.4c-2.3,6.9-10.1,11-8.3,10.9c5.5-0.4,10.4-4,12.3-9.5   c1.9-5.8-0.1-12-4.7-15.5C220.8,48.4,222,49.4,222.8,51.9z"
   id="path232" />
</g>
<g
   id="g234"
   inkscape:export-filename="D:\Dropbox\ScienceVikingLabs\ScienceVikingLogo_Final_Color_No_Words.png"
   inkscape:export-xdpi="90"
   inkscape:export-ydpi="90">
	<path
   fill="#527889"
   d="M250.9,39.7c3.8,8.4,7.5,16.9,11.3,25.3c1.9,1.2,3.5,0.7,4.7-1.4c1.4-2.6,3.5-4.6,6.5-5.9   c7.4-3.3,58.1-26.3,65.5-29.6c6.4-2.9,9.5-10,6.8-15.9c-2.7-5.9-10.1-8.4-16.5-5.5c-7.4,3.5-57.9,26.2-65.3,29.6   c-2.9,1.3-5.7,1.8-8.6,1.1C252.7,36.8,251.4,37.5,250.9,39.7z M267.7,38.9c0.5,1.2,1,2.2,1.5,3.3c0.3,0.6,0.5,1.2,0.9,1.7   c0.7,1,1.8,1.1,3.1,0.5c1.2-0.6,1.7-1.7,1.3-2.8c-0.6-1.4-1.3-2.8-1.8-4.3c-0.1-0.2,0.1-0.8,0.3-0.9c3.1-1.4,6.2-2.9,9.5-4.3   c0.5,1.1,1,2.3,1.5,3.5c0.2,0.5,0.5,1.1,0.8,1.6c0.7,1,1.8,1.2,3.1,0.6c1.2-0.6,1.8-1.6,1.3-2.8c-0.6-1.5-1.3-3-2-4.5   c-0.1-0.1-0.1-0.2-0.1-0.4c0,0,3.7-1.7,8.9-4.1c0.5,1.1,1,2.3,1.5,3.4c0.2,0.5,0.5,1.1,0.8,1.6c0.7,1,1.8,1.2,3.1,0.6   c1.2-0.6,1.8-1.7,1.3-2.8c-0.6-1.5-1.3-3-2-4.5c-0.1-0.1-0.1-0.2-0.1-0.3c2.8-1.3,5.9-2.7,8.9-4c0.5,1.1,1,2.3,1.5,3.4   c0.2,0.5,0.5,1.1,0.8,1.6c0.7,1,1.8,1.2,3.1,0.6c1.2-0.6,1.8-1.7,1.3-2.8c-0.6-1.5-1.3-3-2-4.5c-0.1-0.1-0.1-0.2-0.1-0.3   c3.1-1.4,6-2.7,8.6-3.9c0.5,1.1,1,2.3,1.5,3.4c0.2,0.5,0.5,1.1,0.8,1.6c0.7,1,1.8,1.2,3.1,0.6c1.2-0.6,1.8-1.7,1.3-2.8   c-0.6-1.5-1.3-3-2-4.5c-0.1-0.1-0.1-0.2-0.1-0.3c2.3-1.1,3.7-1.7,3.6-1.6c4.2-1.9,9.1-0.4,10.8,3.5c1.7,3.9-0.3,8.6-4.5,10.5   c-7,3.1-58.2,26.4-65.2,29.6c-2.6,1.2-4.9,2.7-7,4.9c-2.5-5.7-5-11.2-7.5-16.8C261,41.8,264.3,40.6,267.7,38.9z"
   id="path236" />
	<path
   fill="#E6E7E8"
   d="M341.6,13.8c-1.7-3.8-6.6-5.4-10.8-3.5c0.1,0-1.3,0.6-3.6,1.6c0,0.1,0.1,0.2,0.1,0.3c0.7,1.5,1.4,3,2,4.5   c0.5,1.1-0.1,2.2-1.3,2.8c-1.3,0.6-2.4,0.4-3.1-0.6c-0.3-0.5-0.5-1-0.8-1.6c-0.5-1.2-1.1-2.4-1.5-3.4c-2.5,1.1-5.5,2.5-8.6,3.9   c0,0.1,0.1,0.2,0.1,0.3c0.7,1.5,1.4,3,2,4.5c0.5,1.1-0.1,2.2-1.3,2.8c-1.3,0.6-2.4,0.4-3.1-0.6c-0.3-0.5-0.5-1-0.8-1.6   c-0.5-1.2-1.1-2.4-1.5-3.4c-3,1.4-6.1,2.8-8.9,4c0,0.1,0.1,0.2,0.1,0.3c0.7,1.5,1.4,3,2,4.5c0.5,1.1-0.1,2.2-1.3,2.8   c-1.3,0.6-2.4,0.4-3.1-0.6c-0.3-0.5-0.5-1-0.8-1.6c-0.5-1.2-1.1-2.4-1.5-3.4c-5.2,2.4-8.9,4-8.9,4.1c0,0.1,0.1,0.2,0.1,0.4   c0.7,1.5,1.4,3,2,4.5c0.5,1.1-0.1,2.2-1.3,2.8c-1.3,0.6-2.4,0.5-3.1-0.6c-0.3-0.5-0.5-1-0.8-1.6c-0.5-1.2-1.1-2.4-1.5-3.5   c-3.3,1.5-6.4,2.9-9.5,4.3c-0.2,0.1-0.4,0.6-0.3,0.9c0.6,1.4,1.3,2.8,1.8,4.3c0.4,1.1-0.1,2.2-1.3,2.8c-1.2,0.6-2.4,0.4-3.1-0.5   c-0.4-0.5-0.6-1.1-0.9-1.7c-0.5-1.1-1-2.2-1.5-3.3c-3.4,1.6-6.7,2.8-10.3,3c1.7,3.8,4.3,9.8,6,13.6c0.6-0.1,3.1-4.3,4.4-5.2   c2-1.3,4.7-0.5,7-1c2.3-0.5,4.1-2.3,6.1-3.6c4.5-2.7,10.5-2.5,14.5-5.9c0.9-0.8,1.7-1.7,2.6-2.4c1.6-1.2,3.7-1.6,5.6-2.1   c3.9-1,7.8-2.3,11.4-4c2.7-1.2,5.2-2.7,8.1-3.4c2.1-0.6,4.3-0.7,6.4-0.2c3.6-1.6,6.3-2.9,7.6-3.4C341.3,22.4,343.3,17.7,341.6,13.8   z"
   id="path238" />
	<path
   fill="#EC008C"
   d="M323.2,27.9c-2.8,0.8-5.4,2.2-8.1,3.4c-3.7,1.7-7.5,3.1-11.4,4c-2,0.5-4,0.9-5.6,2.1   c-1,0.7-1.7,1.6-2.6,2.4c-4,3.4-10,3.2-14.5,5.9c-2,1.2-3.8,3-6.1,3.6c-2.3,0.5-5-0.3-7,1c-1.3,0.8-3.8,5.1-4.4,5.2   c0.8,1.8,0.7,1.4,1.5,3.2c2.1-2.1,4.4-3.7,7-4.9c5.7-2.6,41.2-18.7,57.6-26.2C327.5,27.2,325.2,27.4,323.2,27.9z"
   id="path240" />
</g>
<path
   fill="#603913"
   d="M307.2,13.3c-0.1-0.1-0.2-0.1-0.3-0.2c-9-4.2-19.9,0.2-23.5,9.2c-4.6,11.7-2.5,23.7-1.1,36  c3.1-2.3,6.3-4.1,9.7-5.9c-1.5-6.5-2.1-13.2-1.6-20c0.7-6.2,3.5-13.9,10.4-15.2c1.6-0.4,3.2-0.4,4.6-0.1  C306.4,16.2,306.7,14.6,307.2,13.3z"
   id="path242"
   inkscape:export-filename="D:\Dropbox\ScienceVikingLabs\ScienceVikingLogo_Final_Color_No_Words.png"
   inkscape:export-xdpi="90"
   inkscape:export-ydpi="90" />
<path
   fill="#603913"
   d="M318.3,40c-0.8,0.7-1.9,1.1-3.2,0.9c-8.3-0.7-13.6-10.1-6.7-17.7c-2.1-1.4-4.2-0.1-6.2,1.4  c-2,1.6-3.1,9-0.3,13.8c4.2,6.2,11.1,10.8,19.4,8c0.9-0.4,1.7-1,2.4-1.7C322,43.1,320,41.7,318.3,40z"
   id="path244"
   inkscape:export-filename="D:\Dropbox\ScienceVikingLabs\ScienceVikingLogo_Final_Color_No_Words.png"
   inkscape:export-xdpi="90"
   inkscape:export-ydpi="90" />
<path
   fill="#8B5E3C"
   d="M286.6,436.1c-0.7-1.8-1.7-3.4-2.3-5.3c-1-3.4-1.6-6.8-2-10.3c-0.8-7.1-0.3-14.3,1.5-21.3  c1.2-4.8,3-9.5,4.3-14.3c1.4-5.4,1.1-10,1.1-15.4c3.4,5.2,4.3,11.7,3.6,17.8c-0.6,5.6-2.3,10.9-3.7,16.3c-1.4,5.3-2.7,10.7-3.2,16.2  C285.3,425.4,286.1,430.6,286.6,436.1z"
   id="path246"
   inkscape:export-filename="D:\Dropbox\ScienceVikingLabs\ScienceVikingLogo_Final_Color_No_Words.png"
   inkscape:export-xdpi="90"
   inkscape:export-ydpi="90" />
<path
   fill="#754C29"
   d="M396.9,386.9c0,0-18.9-17.4-22.1-31.6C374.8,355.3,392,367.3,396.9,386.9z"
   id="path248"
   inkscape:export-filename="D:\Dropbox\ScienceVikingLabs\ScienceVikingLogo_Final_Color_No_Words.png"
   inkscape:export-xdpi="90"
   inkscape:export-ydpi="90" />
<g
   id="g250"
   transform="translate(-7.3220339,319.72881)">
	<path
   d="m 35.1,353.2 -5.2,-4.1 0,-0.5 c -2.5,-1.9 -4.2,-3.3 -5,-4 -1.9,-1.6 -3.4,-3.2 -4.6,-4.5 l 0.2,1.4 -9.3,-7.1 c -4.4,-3.5 -6.8,-6.1 -7.4,-7.8 l 7.4,-9.7 c 1.4,1.5 2.7,3.1 4,4.6 1.7,1.8 3.4,3 5.1,3.3 2.1,1.8 3.9,3.4 5.3,4.9 l -3.4,2.7 5.6,-1.1 c 0.8,2.2 2.2,3.2 4.2,3.1 l 2.5,2.8 1.4,-5.7 c 1.1,-0.6 2.9,-1.2 2.7,-2.2 -0.1,-0.3 -0.2,-0.4 -0.3,-0.7 0.3,-1.1 1,-1.4 2,-0.8 l -0.6,-1.7 1.4,-2.4 0.9,0.5 c 0.5,1.9 0.5,3.4 0,4.5 l 0.9,1.1 c 1,-6.1 1.8,-9.9 2.5,-11.4 l 4.6,-7.7 2.5,1.1 c -0.2,-1.6 -0.1,-3.1 0.1,-4.7 l 6.8,-9.5 5.1,4.8 c 2.2,2 4.2,3.1 5.9,3.3 l 1.3,1 c -0.2,1.4 -0.2,2.1 -0.2,2.1 l 0.3,1.3 4.8,1.1 -0.1,1.2 c 2,1.6 5,3.8 9.2,6.7 l 0.4,1.8 3,0.6 -1.5,1.4 c 0.7,0 2.3,0 4.8,-0.3 l 1.4,2.7 -6.8,9.4 -2.4,0.2 -6.2,-5 c -0.5,-0.4 -1.1,-1.4 -1.9,-2.8 -1.3,-0.3 -2.3,-0.6 -2.9,-1.2 l -2.3,-2 -0.1,-2.8 c -0.7,-0.5 -1.9,-1.8 -3.7,-3.8 l 0.7,2.5 -5,-4.2 c -0.6,1.8 -1.9,3.5 -3.5,5.2 -1.9,2 -3,3.4 -3.5,4.1 -0.9,1.8 -1.3,3.9 -1.1,6.6 L 53,331 c -0.9,0.9 -1.9,1.7 -3,2.5 -1,1.1 -1.3,2.1 -0.9,3.3 -0.2,0.4 -1.8,2.7 -4.7,6.9 l -1.9,0.7 1.2,1 c 0,0.3 -0.5,1 -1.5,2.1 -1.2,1.1 -1.8,2.1 -2.1,3.1 l -3.3,-1.7 1.2,3.4 -2.9,0.9 z"
   id="path252"
   style="fill:#58595b" />
	<path
   d="m 29,388.7 c 0.4,-0.8 1,-1.9 2,-3.3 0.1,-0.1 0.1,-0.2 0.2,-0.3 l 0.4,0.1 0.6,-1.5 0.9,-1.5 -0.3,0.1 c 1.3,-2.7 3.2,-6.2 5.4,-10.4 l 3.5,-5.8 2,-1.2 -0.1,-1.4 c 0.2,-0.4 0.3,-0.7 0.3,-1 0.1,-0.5 0.4,-1.4 0.9,-2.6 l 1.3,-1.9 c 0.6,-0.9 0.7,-1.6 0.6,-2.1 l 1.6,-3.1 0.7,-0.3 0.3,-0.7 c 0.5,-0.2 1.2,-0.5 2,-1.1 l -0.4,-0.1 -0.9,0.6 c -0.4,-0.2 -0.4,-0.3 -0.2,-0.4 -0.1,-0.1 -0.2,-0.2 -0.2,-0.4 0.7,-2.1 0.8,-3.4 1.7,-3.8 l 0.2,-0.1 c -0.1,0 -0.1,-0.1 -0.2,-0.1 l 0.7,-1.6 0.3,-0.4 0.5,0.6 -0.7,0.3 -0.1,-0.9 0.4,0.1 0.1,-0.1 10.4,3.9 c 0.2,0.6 0.6,1 1.4,1.1 2.1,0.5 1.8,0.6 2.4,0.4 1.6,0.7 4.8,2 9.7,3.7 1,0.8 2.3,1.6 3.9,2.3 1.7,0.7 3,1 4.1,0.9 l 1.7,0.6 c 0,0.1 0.3,0.2 0.6,0.2 l 0.3,0.1 c 0.6,0 1,0.2 1.1,0.6 0.6,1.8 1.1,2.7 1.2,2.8 0,0.3 0.3,1 1.1,1.8 0,-0.7 0.3,-1.2 0.7,-1.6 l 1.1,-0.4 c 0.5,-0.2 2.4,0.3 5.6,1.7 l -5.5,9.9 -3,-1.6 c -0.6,-0.7 -1.2,-1 -1.8,-1.1 l -2,0.1 c -1.6,-0.5 -4.1,-1.6 -7.3,-3.3 -3.3,-1.6 -5.7,-2.7 -7.6,-3.4 l -1.9,-1.3 -0.6,-0.9 C 68,360.8 68,360.8 67.9,361 l -0.1,0.2 c -0.3,0.3 -0.6,0.4 -1,0.3 -3.4,-1.9 -5.8,-2.5 -7.2,-1.9 -0.4,-0.2 -0.8,-0.2 -1.2,-0.3 l -0.3,0.1 c -0.6,0.2 -1.1,0.7 -1.3,1.4 l -0.9,1.8 -1.9,3.6 -2.9,5.4 c -0.8,0.7 -1.8,2.3 -2.9,4.9 -1.2,2.6 -1.7,4.4 -1.6,5.3 l -0.5,0.1 0.1,0.4 c -0.4,0.3 -1,1.2 -1.7,2.7 -1.2,2.1 -1.7,3.5 -1.6,4.1 -0.6,0.9 -1.2,2.1 -1.9,3.6 l -12,-4 z"
   id="path254"
   style="fill:#58595b" />
	<path
   d="m 44.3,412.9 -0.9,-1.7 -1.1,-2.5 c -0.1,-0.2 -0.1,-0.5 -0.1,-0.8 L 42,408 41.5,406.7 c -0.3,-0.5 -0.2,-1.1 0.1,-1.9 -0.3,-0.4 -0.9,-0.7 -1.7,-1.1 -0.1,-0.3 -0.2,-0.6 -0.3,-1.1 l -0.1,-0.2 c 0,-0.1 -0.1,-0.4 -0.2,-0.6 l 0.6,0.1 c 0,-0.1 0,-0.3 0.2,-0.5 0.7,0.5 1.2,0.6 1.4,0.3 l 1.2,-1.9 c 1.6,-0.5 2.7,-1 3.4,-1.4 1.1,-0.6 2.2,-1.2 3.3,-1.8 l 1.5,0.4 3,-0.4 c -0.3,-0.1 -0.6,-0.4 -0.7,-0.8 -0.1,-0.5 -0.1,-0.7 0.1,-0.9 0.9,-0.6 1.7,-1.1 2.7,-1.6 1.3,-0.6 3.1,-1.3 5.8,-2 2.7,-0.7 4.6,-1.4 5.9,-2 0.8,-0.4 1.9,-1 3.4,-2 1.5,-1 2.6,-1.6 3.5,-2 0.8,0.6 1.7,0.6 3,0 0.8,-0.4 1.4,-1.2 1.8,-2.3 l 9,-4.6 c 0.2,-0.2 0.5,-0.3 0.8,-0.2 l 0.2,0.1 c 0.4,0.1 0.7,0.2 1.1,0.1 1.4,-1.7 2.5,-2.6 3.3,-2.7 0.1,0 0.9,-0.6 2.4,-1.9 0.3,-0.2 0.6,-0.5 0.7,-0.9 l 2.1,1.1 4.8,10.1 c -1.7,0.9 -4.4,2.1 -8,3.5 -0.6,0 -1.5,0 -2.6,0.1 -0.3,0.3 -0.7,0.8 -1.2,1.4 -0.2,0.2 -0.5,0.4 -1,0.6 l -3,0.8 -0.1,0.8 -1.1,-0.1 c -0.1,0.6 -0.9,1.2 -2.1,1.8 0,-0.4 0,-0.9 -0.1,-1.6 l -1.6,2.5 c -0.8,0.1 -2,0.5 -3.6,1.3 -0.8,0.4 -2,0.9 -3.6,1.8 -1.8,1 -3.2,1.6 -3.9,1.9 -3.3,1.6 -5.6,2.5 -7.2,2.9 l -3.9,2.7 0.9,-2.4 c -1.1,0.2 -1.7,0.4 -1.7,0.7 0.2,1.3 0.3,1.4 -0.8,2 -1,0.4 -2.1,1.1 -3.3,2.2 l -3.1,0.8 c -0.5,-0.1 -1.7,0.4 -3.6,1.3 -1.1,0.5 -2.1,1.5 -2.9,3 l -2,0.8 z"
   id="path256"
   style="fill:#58595b" />
	<path
   d="m 60.9,450.5 c 0.3,-0.8 0.6,-2 1.3,-3.6 0,-0.1 0.1,-0.2 0.2,-0.2 0.2,-0.1 0.3,-0.1 0.4,0 l 0.4,-1.5 c 0,-0.2 0.2,-0.8 0.5,-1.6 l -0.2,0.1 c 0.7,-3 1.8,-6.7 3.2,-11.3 l 1.1,-2.9 1.1,-3.5 1.5,-2.4 -0.3,0.2 c 0.2,-0.9 0.2,-1.6 0.3,-1.9 l 0.3,-0.7 c -0.1,-0.3 0,-1 0.1,-1.8 0.5,-0.8 0.9,-2.1 1.3,-3.8 0,-0.2 -0.2,-0.4 -0.4,-0.8 l 0.8,-3.5 0.9,-0.5 1.6,-0.2 -0.7,-1.2 -0.3,0.3 c -0.1,0 -0.3,-0.1 -0.4,-0.2 -0.2,-0.4 -0.1,-1.5 -0.1,-3 0,-0.7 0.3,-1.2 0.8,-1.4 l -0.2,-0.4 0.3,-0.8 -1.2,0 2.9,-2.1 -0.3,1.1 10.2,1.1 c 0.6,0.8 1.7,1 3.3,0.9 l 0.1,0 0.3,-0.1 c 0.1,0 0.3,-0.1 0.4,-0.2 3.4,0.7 6.7,1.2 10.1,1.6 2.3,1.3 5.2,2 8.6,1.8 l -0.1,0 1.6,-0.3 c 0.5,0 1.1,0.2 1.9,0.3 l 0.1,0.4 c 0.1,0 0.3,0.1 0.4,0.3 0,0 0.1,0.2 0.3,0.7 l 0.6,1 c 0,0.1 0.2,0.1 0.3,0.1 l 0,-0.1 c 0.4,-0.7 0.8,-1 1.1,-0.9 0.2,0 0.4,0.1 0.5,0.3 l 0.4,0.5 c 0.3,0.3 0.3,0.5 0.3,0.6 l 1,-0.6 c 0.5,-0.3 2.4,-0.2 5.7,0.4 l -2.4,7.9 -0.1,1.3 -0.4,-0.1 -0.5,1.6 -3.2,-1 c -0.8,-0.5 -1.4,-0.7 -1.9,-0.7 -0.7,0.2 -1.3,0.4 -1.9,0.6 -1.7,-0.3 -4.4,-0.9 -7.9,-1.8 -3.5,-0.9 -6.2,-1.5 -8.1,-1.8 l -2.2,-0.9 -0.2,-0.2 -1.1,0 c -0.1,0.2 -0.3,0.2 -0.6,0.3 l -3.5,-1.1 1.5,2.9 c 0.6,1.1 1.3,2.1 2,2.8 0,0.1 0.5,0.6 1.1,1.5 0.7,0.9 1.1,1.4 1.3,1.6 l 0.2,0.5 -0.1,0.2 0.4,0.8 0.1,0.8 0.7,1.1 c 0.1,0.2 0.4,0.6 0.8,1.1 0.3,0.3 0.5,0.3 1,0.2 l 1.3,3.4 -8.7,5.4 c -3.2,-3.8 -4.9,-5.9 -5.2,-6.5 -0.1,-0.8 -0.2,-1.3 -0.3,-1.6 -0.2,-0.3 -0.5,-2.3 -0.9,-2.9 -0.1,-0.2 -0.3,-0.4 -0.5,-0.3 l -0.7,-0.4 -1.5,-2.5 -1.9,5.3 -0.2,0.7 c -0.6,0.8 -1.3,2.6 -1.9,5.4 -0.6,2.8 -0.8,4.6 -0.5,5.5 l -0.9,0.3 c 0,0 -0.1,0 -0.1,0.2 -2.1,0.7 -2.5,3.2 -1.2,7.3 -0.4,1 -0.7,2.3 -1,3.9 l -12.8,-1 z"
   id="path258"
   style="fill:#58595b" />
	<path
   d="m 103.9,497.6 0.4,-1.7 c -0.1,0.3 -0.4,0.5 -0.8,1 l -1.9,-2.7 0.8,-2.9 1.5,-8.3 c 0.7,-0.6 1.4,-1.4 2.2,-2.3 -0.4,-0.3 -0.8,-0.8 -1.2,-1.6 l 0,-0.3 2.7,-8.8 c 0.9,-1.5 1.5,-3 1.6,-4.4 l 0,-0.4 c 0.1,-2 0.5,-3.7 1.1,-5.3 0.4,-0.8 0.3,-1.8 -0.1,-2.9 l 0.4,-1.9 c 0.4,-0.1 1.1,-0.3 2,-0.8 l 0,-0.1 c 0,0 -0.1,-0.1 -0.3,-0.3 -1.2,-1.5 0.3,-3.2 1.2,-5.4 l 0,-0.5 0,-0.1 0.7,0 c -0.5,1 -0.7,1.6 -1,1.7 l -0.3,0.2 -2.5,1.5 0.2,0.9 -1.1,0.1 c 0,0.6 -0.5,1.4 -1.6,2.4 0,-0.5 -0.2,-0.9 -0.5,-1.5 l -0.9,2.9 c -0.7,0.3 -1.7,1 -3,2.2 l -1,0.9 c -0.1,0.6 -0.4,0.8 -0.8,0.6 l -0.6,0.3 -2.8,3.7 0.1,-2.6 c -1,0.5 -1.4,0.8 -1.3,1.1 l 0.5,1.1 c 0,0.6 -0.7,1.3 -2.2,2.1 -0.4,0.2 -0.6,0.6 -0.6,1 l -2.7,1.6 c -0.5,0.1 -1.6,0.8 -3.4,2.4 -0.9,0.8 -1.5,2.1 -1.8,3.9 l -1.5,1.4 -1.4,-1.4 -1.9,-2.2 c -0.1,-0.1 -0.2,-0.3 -0.3,-0.7 l -0.2,0.2 -0.9,-1.2 c -0.4,-0.4 -0.5,-1 -0.5,-1.9 l 0.1,0.1 c -0.3,-0.3 -1,-0.6 -2.1,-0.6 -0.2,-0.3 -0.5,-0.7 -0.7,-1.2 l -0.2,-0.2 c -0.5,-0.2 -0.4,-0.7 0.2,-1.2 l 0.3,0.3 c 0.7,0.2 1.1,0.1 1.3,-0.1 0.1,-0.1 0.2,-0.8 0.5,-2.2 1.4,-0.9 2.4,-1.7 3,-2.3 0.9,-1.1 1.8,-2 2.8,-2.8 l 1.6,0 2.8,-1.2 c -0.4,0 -0.7,-0.2 -1,-0.7 -0.2,-0.3 -0.2,-0.5 -0.1,-0.8 0.6,-0.8 1.3,-1.6 2.1,-2.3 1,-0.9 2.6,-2.1 5,-3.6 2.3,-1.5 4,-2.7 5,-3.6 0.6,-0.6 1.5,-1.5 2.6,-2.8 1.1,-1.4 2,-2.3 2.8,-3 1.4,0.5 2.4,0.5 3.3,-0.3 0.5,-0.4 0.7,-1.5 0.7,-3.3 1.5,-1.5 4,-3.8 7.2,-7.1 0.2,-0.5 1.9,0.2 2.6,-0.1 0.9,-2.5 1.5,-3.8 1.9,-4 0.1,-0.1 1,-0.9 3,-2.6 0.3,-0.3 0.4,-0.6 0.5,-1.2 l 1.6,0.8 0.4,0.8 0.1,0.1 1.3,0.6 c -0.2,0.8 -0.6,2.7 -1.2,5.6 0.4,1 -0.1,2.4 -0.9,3.8 l -1.3,0.7 1.2,0.9 -2,10.2 -0.7,0.2 c 0,0 0.1,0.1 0.1,0.1 -0.7,0.8 -1.1,1.1 -1.3,1.1 l 0.9,2.4 c -1.2,1.8 -2.5,7.4 -4.1,16.9 -0.1,0.1 -0.1,0.3 -0.2,0.7 l -0.1,0.2 c 1.9,-1.6 2.7,-2.2 2.5,-2 l 0.9,-0.8 -0.1,-0.1 c 0.2,-0.7 1.2,-1.9 3,-3.4 l 2.7,-1.8 2,-2.5 1,-0.5 1,-0.5 c 0.7,-0.6 1.2,-0.9 1.4,-0.8 l 0.5,-0.4 c 0.5,-0.4 0.8,-1.2 1.1,-2.3 0.8,-0.9 1.7,-1.8 2.7,-2.6 0.5,0 0.9,-0.2 1.3,-0.4 0.7,-0.3 1.4,-0.6 1.8,-1 0.9,-0.8 1.6,-2.1 2.1,-3.7 0.3,-0.3 0.8,-0.8 1.4,-1.4 l 2.6,2.7 0,0.6 0,0.6 c 0,0.4 0,0.7 0,0.9 l -0.1,-0.1 c 0.3,0.5 0.3,1.1 -0.2,2.1 l 1.9,-1.4 c 0.1,0 0.3,0 0.7,0 l 0.1,0.2 0.4,0.5 c -0.1,-0.1 -0.1,-0.1 -0.1,-0.1 0,0.1 0,0.3 -0.1,0.3 l 0.2,0.1 c 0,0.3 -0.1,0.5 -0.2,0.6 l -0.1,0.1 c 0.4,0.3 1,0.4 1.8,0.3 l 1.6,1.8 c -4.4,3.6 -7.5,6.1 -8.9,7.4 l -3,1.3 -0.3,1.4 c 0,0.4 -1.1,1.4 -3.3,2.9 -1.2,1 -2.9,2.2 -5,4 -0.7,0.2 -1.4,0.7 -2,1.4 -1.1,1.3 -1.7,1.9 -1.6,1.8 -2.4,2.2 -3.8,3.6 -4,4.4 l -1.4,1.3 c -0.3,-0.1 -0.8,-0.3 -1.4,-0.5 0.1,0.1 0,0.1 0,0.3 -0.3,1.3 -0.8,2 -1.5,2 l -0.4,0 -0.4,-0.2 c -0.5,-0.1 -0.7,-0.1 -0.7,-0.1 -0.2,0.5 -0.3,1 0,1.5 0,0.4 -0.2,0.8 -0.3,1.3 -3.1,2.9 -6.1,5.8 -8.9,8.6 l -0.5,-0.2 c -0.3,0.9 -0.7,1.4 -1.1,1.3 l -1.6,-0.6 c -0.4,0.9 -0.8,1.7 -0.9,2.3 l 1.8,-1.8 -3.7,5.9 z"
   id="path260"
   style="fill:#58595b" />
	<path
   d="m 135.1,525.9 c -0.1,-0.9 -0.2,-2.1 -0.2,-3.9 0,-0.1 0,-0.3 0,-0.3 l 0.4,-0.1 -0.3,-1.6 -0.1,-1.7 -0.2,0.2 c -0.4,-3 -0.8,-6.9 -1.2,-11.7 l -0.3,-6.8 1,-2.2 -0.8,-1.1 c -0.1,-0.4 -0.2,-0.7 -0.3,-1 -0.2,-0.5 -0.5,-1.4 -0.7,-2.6 l 0,-2.3 c 0,-1.1 -0.3,-1.7 -0.6,-2.1 l -0.4,-3.5 0.4,-0.7 -0.2,-0.7 c 0.3,-0.5 0.7,-1.1 1,-2 l -0.4,0.2 -0.4,1 c -0.4,0.1 -0.5,0 -0.4,-0.2 -0.1,0 -0.3,-0.1 -0.4,-0.2 -0.6,-2.2 -1.2,-3.2 -0.7,-4.1 l 0.1,-0.1 c -0.1,0.1 -0.1,0 -0.2,0 l -0.3,-1.7 0,-0.5 0.8,0.2 -0.4,0.7 -0.6,-0.7 0.4,-0.1 0,-0.1 10.9,-2.5 c 0.5,0.4 1.1,0.4 1.8,0.1 2,-0.8 1.8,-0.5 2.3,-1 1.7,-0.3 5.1,-1 10.1,-2.3 1.2,0.1 2.8,0.1 4.5,-0.3 1.8,-0.4 3.1,-0.9 3.9,-1.5 l 1.7,-0.5 c 0.1,0.1 0.3,0 0.6,-0.2 l 0.3,-0.1 c 0.5,-0.3 0.9,-0.4 1.3,-0.1 1.5,1.1 2.4,1.7 2.5,1.6 0.2,0.2 0.8,0.6 1.9,0.9 -0.4,-0.6 -0.4,-1.1 -0.3,-1.8 l 0.7,-1 c 0.3,-0.5 2.2,-1.1 5.6,-1.7 l 0.9,11.3 -3.4,0.3 c -0.9,-0.2 -1.6,-0.1 -2.1,0.1 l -1.6,1.2 c -1.6,0.4 -4.3,0.9 -8,1.3 -3.6,0.5 -6.3,0.9 -8.2,1.4 l -2.3,0 -1,-0.4 c -0.1,0 -0.1,0 -0.1,0.2 l 0,0.2 c -0.1,0.4 -0.3,0.7 -0.6,0.8 -3.8,0.3 -6.2,1.1 -7.1,2.4 -0.4,0.1 -0.8,0.2 -1.1,0.4 l -0.2,0.2 c -0.4,0.5 -0.5,1.1 -0.3,1.9 l 0.2,2 0.5,4.1 0.6,6.1 c -0.3,1 -0.2,2.9 0.3,5.7 0.5,2.8 1,4.6 1.7,5.3 l -0.4,0.3 0.3,0.2 c -0.1,0.5 -0.1,1.6 0.1,3.2 0.2,2.4 0.5,3.9 1,4.3 0,1.1 0.2,2.5 0.4,4 l -12.4,3.6 z"
   id="path262"
   style="fill:#58595b" />
	<path
   d="m 172.6,546.5 c -0.2,-0.8 -0.5,-2.1 -0.8,-3.8 0,-0.1 0,-0.2 0,-0.3 0.1,-0.2 0.2,-0.2 0.3,-0.3 l -0.5,-1.5 c -0.1,-0.2 -0.3,-0.8 -0.4,-1.7 l -0.1,0.3 c -1,-2.9 -2,-6.7 -3.3,-11.3 l -0.7,-3.1 -0.9,-3.6 0,-2.8 -0.2,0.3 c -0.3,-0.9 -0.6,-1.5 -0.8,-1.8 l -0.1,-0.8 c -0.2,-0.2 -0.5,-0.8 -0.9,-1.6 0,-1 -0.3,-2.3 -0.9,-3.9 -0.1,-0.2 -0.4,-0.3 -0.7,-0.5 l -1.1,-3.4 0.5,-0.9 1.3,-1 -1.3,-0.6 -0.1,0.4 c -0.1,0 -0.3,0.1 -0.4,0 -0.4,-0.3 -0.9,-1.2 -1.7,-2.5 -0.3,-0.6 -0.4,-1.1 -0.1,-1.6 l -0.4,-0.2 -0.2,-0.8 -1,0.6 1.3,-3.3 0.3,1.1 9.5,-4.1 c 1,0.4 2,0 3.2,-1 l 0.1,0 0.2,-0.2 c 0.1,0 0.2,-0.2 0.3,-0.4 3.2,-1.2 6.3,-2.6 9.4,-4 2.7,-0.1 5.5,-1.1 8.2,-3.1 l 0,0.1 1.2,-1.1 c 0.4,-0.2 1,-0.4 1.8,-0.8 l 0.3,0.3 c 0.1,0 0.3,0 0.5,0 0,0 0.3,0.1 0.6,0.4 l 1.1,0.5 c 0.1,0 0.2,0 0.3,0 l 0,-0.1 c 0,-0.8 0.1,-1.3 0.5,-1.3 0.2,-0.1 0.4,-0.1 0.6,0 l 0.6,0.2 c 0.4,0.1 0.5,0.3 0.5,0.4 l 0.5,-1.1 c 0.3,-0.5 2,-1.4 5.1,-2.7 l 2.2,8 0.7,1.2 -0.4,0.1 0.4,1.7 -3.3,0.9 c -0.9,0 -1.5,0.2 -2,0.5 -0.5,0.5 -0.9,1 -1.3,1.5 -1.6,0.7 -4.1,1.6 -7.6,2.7 -3.5,1.1 -6,2 -7.8,2.8 l -2.3,0.4 -0.3,0 -0.9,0.6 c 0,0.2 -0.2,0.3 -0.4,0.5 l -3.5,1 2.8,1.7 c 1,0.6 2.2,1.1 3.2,1.3 0.1,0 0.7,0.3 1.8,0.7 1,0.4 1.7,0.6 2,0.7 l 0.5,0.3 0,0.2 0.7,0.5 0.5,0.7 1.2,0.6 c 0.3,0.1 0.7,0.3 1.2,0.5 0.4,0.1 0.6,0 0.9,-0.4 l 2.9,2.2 -4.5,9.2 c -4.7,-1.5 -7.3,-2.4 -7.8,-2.8 -0.5,-0.7 -0.8,-1 -1.1,-1.2 -0.3,-0.2 -1.7,-1.7 -2.3,-2 -0.3,-0.1 -0.5,-0.1 -0.6,0 l -0.8,0 -2.6,-1.3 1.2,5.5 0.2,0.7 c -0.1,1 0.3,2.9 1.3,5.6 1,2.7 1.8,4.4 2.5,4.9 l -0.6,0.8 c 0,0 0,0.1 0,0.2 -1.4,1.7 -0.5,4.1 2.8,6.9 0.2,1 0.6,2.3 1.2,3.9 l -11.7,5.3 z"
   id="path264"
   style="fill:#58595b" />
	<path
   d="m 272.4,511.8 c -1.9,1.1 -2.7,2.5 -2.7,4.1 0.1,1.4 -1.6,4.7 -5.1,9.8 -3.7,5.5 -5.8,9.7 -6.2,12.6 -0.1,0.6 -0.4,1.3 -1,2 l -1.8,0.2 0.5,1.3 -1.1,0.2 c 0.1,1.1 -0.4,2.3 -1.7,3.8 l 0.2,1.5 -2.2,4.2 -0.6,-0.1 c -0.1,0.6 -0.9,1.6 -2.3,2.9 -1,0.9 -2,1.7 -3,2.5 l 3.6,-0.5 c -1.2,1.6 -3.2,5.9 -6.2,13.2 l -2.2,-0.2 c -0.7,-0.8 -1,-1.9 -0.9,-3.4 0.1,-1.5 -0.2,-2.6 -0.9,-3.4 -0.4,-4.8 -0.6,-7.6 -0.5,-8.4 l 0.1,-0.4 -1.4,-1.7 1.3,-1.7 -1.3,-0.5 c 0,-0.7 -0.3,-2.9 -0.8,-6.5 -0.5,-3.6 -0.7,-5.4 -0.7,-5.4 0.4,-2.5 0.1,-5.5 -0.8,-8.9 -1.4,-5.2 -2.1,-8 -2.1,-8.5 l 1.5,-1.4 -1.8,-1.6 -0.4,-2.8 0.5,-1 c -0.4,-0.2 -0.9,-0.4 -1.5,-1 -0.3,-3 -1.1,-7.3 -2.3,-13.2 l 0.6,-0.6 c -0.1,-0.8 -0.5,-1.7 -1.2,-2.6 l 0.9,-2.1 -2.2,-1.7 -1.4,-5.6 3.6,-0.4 3.3,1.6 -0.4,-1.9 8.4,-0.8 1.4,9 c 0.7,4.9 1.3,9.7 1.8,14 0.1,0.3 -0.9,0.7 -2.6,1.1 -1.8,0.4 -2.6,0.6 -2.6,0.9 0.1,0.2 0.2,0.3 0.7,0.4 0.5,0.1 1.2,0.1 2.4,0.1 1.2,-0.1 1.9,-0.1 2.2,-0.1 0.3,0 0.4,0.2 0.4,0.3 0.2,1.5 0.7,6.2 1.4,13.8 -1,-0.1 -2,0.2 -2.9,0.5 0.1,0.3 0.5,0.6 1.5,0.9 1,0.2 1.4,0.5 1.5,0.8 0.3,4 0.7,7.5 1.3,10.4 l 0.3,0.2 c 0.8,-1.3 1.4,-2.8 1.8,-4.4 0.2,-0.6 0.6,-1.5 1.1,-2.7 l 4.6,-11 c 0.2,-0.4 1,-0.6 2.4,-0.5 1.4,0 2.2,-0.1 2.2,-0.1 0,-0.2 -0.4,-0.8 -1,-1.9 -0.9,-1.2 -1.4,-1.7 -1.4,-1.7 l 3.1,-7.1 c 0.2,-1 0.6,-1.9 0.9,-2.9 0.6,-1.4 1.2,-2.1 1.7,-1.9 l 0.6,-1.3 c 0.8,-0.4 1.9,-2.4 3.2,-5.7 l 2.7,-6.7 2.5,0.8 c 2.5,1.3 5.6,3.1 9.3,5.4 l -8.3,15.8 z"
   id="path266"
   style="fill:#58595b" />
	<path
   d="m 292.4,565.9 -1.9,0.1 -2.7,-0.1 c -0.2,0 -0.5,-0.1 -0.7,-0.2 l 0,0.2 -1.4,-0.1 c -0.6,0.1 -1.1,-0.3 -1.7,-1 -0.5,0.1 -1,0.4 -1.7,1.1 -0.3,0 -0.7,-0.1 -1.1,-0.2 l -0.2,0 c -0.1,-0.1 -0.4,-0.1 -0.7,-0.1 l 0.4,-0.5 c -0.1,0 -0.3,-0.1 -0.4,-0.4 0.8,-0.5 1,-0.8 0.9,-1.1 l -1.2,-1.9 c 0.2,-1.7 0.3,-2.9 0.3,-3.6 -0.1,-1.2 -0.1,-2.5 -0.1,-3.7 l 1.1,-1.2 1,-2.9 c -0.2,0.3 -0.6,0.4 -1,0.3 -0.5,-0.1 -0.7,-0.2 -0.7,-0.5 -0.2,-1 -0.2,-2.1 -0.2,-3.1 0,-1.4 0.3,-3.4 0.8,-6.1 0.5,-2.7 0.8,-4.8 0.8,-6.2 0,-0.8 0,-2.2 -0.3,-3.9 -0.2,-1.8 -0.3,-3.1 -0.3,-4 0.9,-0.4 1.3,-1.3 1.4,-2.7 0,-0.9 -0.4,-1.8 -1.3,-2.6 l -0.2,-10.1 c -0.1,-0.3 -0.1,-0.6 0.2,-0.8 l 0.2,-0.2 c 0.3,-0.3 0.5,-0.6 0.6,-0.9 -0.9,-2 -1.2,-3.4 -0.9,-4.1 0,-0.1 -0.2,-1 -0.6,-3 -0.1,-0.4 -0.2,-0.8 -0.4,-1 l 1.4,-1.5 11.2,0.1 c 0.1,2 -0.1,4.9 -0.4,8.7 -0.3,0.6 -0.7,1.3 -1.1,2.3 0.2,0.4 0.4,0.9 0.7,1.7 0.1,0.3 0.2,0.7 0.1,1.1 l -0.6,3 0.6,0.5 -0.6,0.9 c 0.5,0.4 0.7,1.3 0.7,2.7 -0.4,-0.2 -0.8,-0.4 -1.5,-0.6 l 1.5,2.6 c -0.3,0.7 -0.4,2 -0.5,3.8 0,0.8 0,2.2 0,4 0.1,2.1 0,3.6 0,4.4 0,3.6 -0.2,6.2 -0.6,7.8 l 0.6,4.7 -1.7,-1.9 c -0.3,1 -0.4,1.7 -0.1,1.8 1.2,0.4 1.4,0.4 1.5,1.6 -0.1,1 0,2.3 0.5,3.9 l -0.6,3.2 c -0.3,0.4 -0.4,1.7 -0.5,3.8 0,1.2 0.4,2.5 1.4,4 l 0,1.9 z"
   id="path268"
   style="fill:#58595b" />
	<path
   d="m 349,553.2 -0.7,0.6 c 0.2,-0.5 0.3,-0.3 0.3,-0.3 0.1,0.6 -0.1,1.3 -0.5,2.4 l -0.5,1.3 -1.3,-0.2 c 0,0 0,0.1 0,0.2 l -0.9,-0.3 c 0.1,-0.1 -2.1,-1.1 -2.1,-1.1 l 0.5,1.7 1.8,0.6 -0.2,0.9 c 0.1,-0.1 0.2,-0.1 0.4,0 -0.4,1.2 -0.7,1.8 -1,1.7 l 0.1,0 c -1.8,0.2 -1.5,-0.1 -1.4,1.3 l -1.1,2.2 c -0.2,0.3 -0.4,0.6 -0.7,1 -1,-0.8 -2.6,-2.2 -4.5,-4.1 -0.2,-0.3 -1.2,-1.2 -3.1,-2.8 -0.4,-1.2 -1.2,-1.9 -2.5,-1.9 -0.6,-0.7 -1.7,-1.5 -3.1,-2.4 -1.3,-0.9 -2.3,-1.7 -2.9,-2.3 -0.8,-1.9 -0.6,-1.6 -2.6,-2.2 l -3.5,-3.3 c 0.1,-0.3 0,-0.8 -0.1,-1.4 -0.3,-0.8 -0.4,-1.3 -0.5,-1.4 l -0.4,1.6 -1.3,-1.8 -0.8,-1.1 c 0.3,4.7 0.4,7.1 0.5,7.4 0,0.5 0.5,1.2 1.3,2 l 0.6,3.7 c -0.6,1.7 -0.8,2.8 -0.8,3.5 0.1,1.1 0.8,2.4 2,3.7 0,0.3 0,0.5 0,0.8 l 0.1,0.6 c 0,0.5 0,1 0.1,1.5 -0.5,0 -1.6,0 -3.3,-0.2 -0.3,-0.1 -0.7,0 -1,0 -0.4,-0.2 -0.4,-0.4 0,-0.6 0.1,-0.3 0.2,-0.4 0.3,-0.3 0.2,0.3 0.2,0.5 0.1,0.8 -0.4,0.6 -1,0.9 -2,0.9 l -0.4,-0.1 c -0.3,0 -0.8,0.4 -1.6,0.9 l 1.1,-3 c -0.5,0.1 -0.8,0.2 -0.9,0.1 0.1,0.1 0,0.3 -0.1,0.6 -0.5,0.9 -0.9,1.3 -1.2,1.3 -0.2,0 -0.4,0 -0.6,0 -1,0.1 -2,0.2 -2.9,0.4 -0.7,-7.6 -1,-11.6 -0.9,-11.7 0.2,-1.3 0.4,-2.1 0.3,-2.3 0,-0.5 -0.2,-1.1 -0.6,-1.7 0,-0.1 0,-0.3 -0.1,-0.4 -0.2,-1.7 -0.4,-5.1 -0.8,-10.5 0.1,-0.6 0.1,-1.3 -0.1,-2.2 -0.3,-1.2 -0.5,-1.9 -0.5,-2.1 -0.1,-0.7 0.8,-1.7 0.7,-2.4 0,-0.5 -0.3,-0.8 -0.7,-1.2 -0.6,-0.6 -0.9,-0.9 -1,-1 l -0.4,-3.7 1.7,-0.8 c -0.3,-0.2 -0.5,-0.6 -0.7,-1.3 l -0.6,0.1 c -0.5,-0.4 -1.2,-0.4 -1.8,-0.1 l -0.4,-0.7 1,-0.9 c 0,-0.1 0,-0.3 0,-0.6 l 0,-0.1 c 0,0 -0.1,-0.1 -0.3,-0.3 0.4,-0.5 0.6,-1 0.4,-1.5 -0.3,-0.7 -0.1,-1.4 0.4,-2 -0.3,-2.4 -0.9,-5.6 -1.7,-9.8 l 0.6,-0.3 -0.3,-0.8 c 0,0 0.3,0 0.9,0 l -0.1,0.3 -0.5,0 c 0,0 -0.1,-0.1 -0.4,-0.1 l 0.3,-0.8 0.1,-0.3 c -0.1,0.1 -0.2,0.1 -0.2,0 l -0.2,-0.1 -0.1,-0.2 c -0.2,-0.1 -0.3,-0.3 -0.3,-0.7 l 1,-0.6 -0.3,-0.3 c -0.2,-0.9 -0.6,-1.4 -1.5,-1.5 l -0.2,-0.3 0.4,-0.2 c 0,0 0.1,-0.1 0.4,-0.2 l 0.1,0.3 c -0.3,0.1 -0.4,0.1 -0.4,0.1 0,0 -0.2,0 -0.5,0.1 -0.1,-0.5 -0.1,-0.9 0.1,-1.3 l 0.2,-0.2 c 0.1,-0.1 0.1,-0.4 -0.1,-0.8 3.3,-0.3 4.2,0.5 6.4,0.2 1.4,-1 3.4,-1.6 6,-1.5 -0.2,0.8 -0.2,2.3 -0.3,4.5 -0.1,0.1 0,0.5 0.1,0.9 0.1,0.6 0.1,0.9 0.2,1 l 0,0.1 0.1,0.1 c -0.3,0.3 0.1,1.4 -0.1,1.7 l 0,0.1 -0.1,0 c -0.5,0.7 -0.7,1.4 -0.7,1.9 0.1,0.8 0.4,1.5 0.9,1.9 0.1,0.4 0.2,0.9 0,1.7 -0.3,1.1 -0.4,1.6 -0.4,1.7 0,0.1 0.2,0.7 0.6,1.9 0,0.1 -0.1,0.1 -0.3,0.1 l 0.5,0.3 c 0,0.7 0.1,1.7 0.1,3.1 l 4,-5.2 c 0.4,-0.5 1.2,-1 2.4,-1.4 0.5,-0.1 0.5,-0.5 0.2,-1.1 0.4,-0.3 1.5,-1.8 3.2,-4.2 1.8,-2.5 3.5,-4.3 5.1,-5.3 0.4,-0.6 0.8,-0.8 1.3,-0.6 0.5,0.2 0.9,0.2 1,0 -0.1,0 -0.1,0 -0.1,0 -0.4,-1.3 -0.6,-2 -0.3,-2.3 l 4.5,-5.5 8.2,6.4 c -3.8,4 -6.1,6.9 -6.6,8.9 L 333,514 c -0.7,-0.1 -0.9,-0.6 -0.7,-1.4 -0.1,0.2 -0.8,1.7 -1.9,4.5 0,0.5 -0.6,1.5 -1.8,2.8 -1.2,1.3 -2.1,1.7 -2.8,1.3 l -0.2,0.9 c -0.2,1.5 -0.4,2.4 -0.6,2.5 -0.4,0.3 -1.5,1.5 -3.2,3.5 -1.2,1.6 -2.4,2.8 -3.5,3.4 2.3,1.7 3.8,2.7 4.7,3.1 l 2.2,2.7 0.4,-0.4 1.6,0.9 c 0,0.2 0.6,1 1.7,2.4 0.2,-0.1 0.3,0 0.4,0.1 0.1,0.1 0,0.4 -0.1,0.7 l -1.3,1.2 c -0.5,0.1 -0.6,0.2 -0.8,0 -0.1,-0.2 0,-0.4 0.2,-0.7 l 0.6,-0.6 c 0.3,0.3 0.8,0.4 1.6,0.4 0.3,0.1 1.1,0.4 2.2,1 1,0 1.6,0 1.8,0.1 0.9,0.3 1.6,1.7 3.2,3.4 0.3,0.5 0.7,1.2 1.2,1.9 0.2,0.1 0.9,0.2 2,0.2 l 1.8,1.5 c 0,0.1 0.3,0.3 0.9,0.7 0.2,0.2 0.4,0.3 0.5,0.5 0.4,1 1,1.6 1.8,1.9 0.3,0.2 1.2,0.4 2.6,0.5 l 1.5,0.2 z"
   id="path270"
   style="fill:#58595b" />
	<path
   d="m 371,556.3 -1.8,0.5 -2.6,0.6 c -0.2,0 -0.5,0 -0.8,0 l 0,0.2 -1.4,0.2 c -0.5,0.2 -1.2,0 -1.9,-0.5 -0.4,0.2 -0.9,0.7 -1.4,1.5 -0.3,0.1 -0.7,0.1 -1.1,0.1 l -0.2,0 c -0.1,-0.1 -0.4,0 -0.7,0.1 l 0.3,-0.5 c -0.1,0 -0.3,0 -0.4,-0.3 0.6,-0.6 0.8,-1.1 0.6,-1.3 l -1.6,-1.5 c -0.2,-1.7 -0.4,-2.9 -0.7,-3.6 -0.4,-1.2 -0.8,-2.4 -1,-3.6 l 0.7,-1.4 0.2,-3 c -0.1,0.3 -0.5,0.5 -0.9,0.5 -0.5,0 -0.7,0 -0.8,-0.3 -0.4,-1 -0.7,-1.9 -1,-2.9 -0.3,-1.4 -0.6,-3.3 -0.8,-6.1 -0.2,-2.7 -0.5,-4.8 -0.8,-6.2 -0.2,-0.8 -0.6,-2.1 -1.3,-3.7 -0.7,-1.7 -1.1,-2.9 -1.3,-3.8 0.7,-0.6 1,-1.6 0.7,-2.9 -0.2,-0.9 -0.9,-1.6 -1.9,-2.2 l -2.7,-9.8 c -0.2,-0.3 -0.2,-0.5 0,-0.9 l 0.1,-0.2 c 0.2,-0.3 0.3,-0.7 0.3,-1 -1.4,-1.7 -2,-3 -1.9,-3.8 0,-0.1 -0.4,-1 -1.3,-2.8 -0.2,-0.3 -0.4,-0.7 -0.7,-0.9 l 1,-1.8 10.9,-2.7 c 0.5,1.9 1.1,4.7 1.8,8.5 -0.1,0.6 -0.3,1.4 -0.5,2.5 0.3,0.3 0.7,0.8 1.1,1.5 0.2,0.3 0.3,0.6 0.3,1.1 l 0.1,3 0.7,0.3 -0.3,1 c 0.5,0.3 1,1.1 1.3,2.5 -0.4,-0.1 -0.9,-0.2 -1.6,-0.2 l 2.1,2.1 c -0.1,0.8 0.1,2.1 0.5,3.8 0.2,0.8 0.5,2.1 1,3.9 0.6,2 0.9,3.4 1.1,4.3 0.9,3.5 1.3,6 1.3,7.7 l 1.8,4.4 -2.2,-1.4 c 0,1.1 0,1.7 0.3,1.8 1.3,0.1 1.5,0 1.8,1.2 0.1,1 0.6,2.3 1.4,3.7 l 0.2,3.2 c -0.2,0.4 0,1.7 0.5,3.8 0.3,1.2 1,2.4 2.4,3.5 l 1.1,1.8 z"
   id="path272"
   style="fill:#58595b" />
	<path
   d="m 425.7,537 -1.5,-0.9 c 0.2,0.2 0.3,0.6 0.7,1.1 l -3.2,0.9 -2.5,-1.7 -7.3,-4.2 c -0.4,-0.9 -0.8,-1.8 -1.5,-2.8 -0.4,0.3 -1,0.4 -1.9,0.6 l -0.3,-0.1 -7.4,-5.4 c -1.1,-1.4 -2.3,-2.4 -3.7,-2.9 l -0.4,-0.2 c -1.8,-0.8 -3.3,-1.7 -4.6,-2.8 -0.7,-0.6 -1.6,-0.9 -2.8,-0.9 l -1.6,-1 c 0,-0.4 0,-1.1 -0.1,-2.1 l -0.1,-0.1 c 0,0 -0.2,0.1 -0.4,0.2 -1.8,0.6 -2.9,-1.3 -4.7,-2.9 l -0.5,-0.1 -0.1,-0.1 0.2,-0.7 c 0.8,0.8 1.3,1.2 1.3,1.5 l 0.1,0.4 0.6,2.9 0.9,0.1 -0.2,1.1 c 0.6,0.2 1.2,0.9 1.8,2.3 -0.5,-0.1 -1,-0.1 -1.5,-0.1 l 2.5,1.8 c 0,0.8 0.4,2 1.1,3.6 l 0.5,1.3 c 0.5,0.3 0.7,0.6 0.3,1 l 0.1,0.7 2.5,3.9 -2.4,-0.9 c 0.1,1.1 0.3,1.6 0.6,1.6 l 1.2,-0.1 c 0.6,0.2 1,1.1 1.2,2.7 0.1,0.5 0.3,0.8 0.7,0.9 l 0.7,3.1 c -0.1,0.5 0.3,1.8 1.1,4 0.5,1.1 1.5,2.1 3.1,3 l 0.9,1.9 -1.8,0.8 -2.7,1.1 c -0.1,0 -0.4,0.1 -0.8,0 l 0.1,0.3 -1.4,0.5 c -0.5,0.3 -1.1,0.2 -2,-0.2 l 0.1,0 c -0.4,0.2 -0.9,0.8 -1.3,1.8 -0.3,0.1 -0.8,0.2 -1.4,0.3 l -0.3,0.1 c -0.3,0.4 -0.8,0.1 -1.1,-0.6 l 0.4,-0.2 c 0.4,-0.6 0.5,-1 0.4,-1.3 0,-0.1 -0.7,-0.4 -1.9,-1.2 -0.4,-1.7 -0.8,-2.8 -1.2,-3.6 -0.7,-1.2 -1.3,-2.4 -1.7,-3.6 l 0.5,-1.5 -0.2,-3.1 c -0.2,0.4 -0.5,0.6 -1,0.7 -0.4,0.1 -0.6,0 -0.8,-0.2 -0.6,-0.9 -1.1,-1.8 -1.4,-2.7 -0.5,-1.3 -1.1,-3.2 -1.7,-5.9 -0.6,-2.7 -1.2,-4.7 -1.8,-6 -0.3,-0.8 -0.9,-2 -1.8,-3.4 -0.9,-1.5 -1.5,-2.7 -1.9,-3.7 1,-1.1 1.2,-2.1 0.8,-3.2 -0.3,-0.6 -1.2,-1.1 -2.9,-1.7 -0.9,-2 -2.3,-5 -4.3,-9.1 -0.4,-0.3 0.8,-1.7 0.8,-2.5 -2,-1.7 -3,-2.7 -3.1,-3.2 0,-0.1 -0.5,-1.3 -1.4,-3.7 -0.1,-0.3 -0.5,-0.6 -0.9,-0.8 l 1.3,-1.3 0.9,-0.1 0.2,-0.1 1,-1 c 0.7,0.4 2.3,1.5 4.9,2.9 1.1,-0.1 2.3,0.9 3.3,2.1 l 0.2,1.4 1.3,-0.8 9,5.3 0,0.7 c 0,0 0.1,0 0.2,-0.1 0.5,0.9 0.7,1.4 0.6,1.6 l 2.5,0 c 1.3,1.7 6.2,4.8 14.6,9.4 0,0.1 0.2,0.2 0.6,0.4 l 0.2,0.1 c -0.8,-2.3 -1.2,-3.3 -1,-3 l -0.5,-1.1 -0.1,0 c -0.6,-0.5 -1.3,-1.8 -2.2,-3.9 l -0.8,-3.1 -1.7,-2.7 -0.2,-1.1 -0.1,-1.1 c -0.4,-0.9 -0.5,-1.4 -0.3,-1.6 l -0.3,-0.6 c -0.3,-0.6 -0.9,-1.2 -1.8,-1.8 -0.6,-1.1 -1.1,-2.2 -1.6,-3.4 0.1,-0.5 0.1,-0.9 0.1,-1.3 0,-0.8 -0.1,-1.5 -0.4,-2.1 -0.5,-1.1 -1.4,-2.2 -2.8,-3.2 -0.2,-0.4 -0.4,-1 -0.8,-1.8 l 3.4,-1.6 0.6,0.2 0.6,0.2 c 0.4,0.2 0.6,0.3 0.8,0.3 l -0.2,0.1 c 0.6,-0.1 1.2,0.1 1.9,0.9 l -0.7,-2.2 c 0.1,-0.1 0.1,-0.3 0.3,-0.6 l 0.2,0 0.6,-0.2 c -0.1,0 -0.1,0 -0.1,0 0.1,0.1 0.2,0.1 0.3,0.2 l 0.1,-0.2 c 0.2,0.1 0.4,0.2 0.5,0.4 l 0.1,0.2 c 0.4,-0.3 0.7,-0.8 0.9,-1.6 l 2.2,-0.9 c 1.9,5.4 3.3,9.1 4,10.9 l 0.2,3.2 1.2,0.7 c 0.4,0.2 0.9,1.5 1.7,4.1 0.5,1.5 1.1,3.5 2.1,6 0,0.7 0.2,1.5 0.7,2.4 0.8,1.5 1.2,2.2 1.2,2.1 1.3,3 2.2,4.8 2.8,5.2 l 0.7,1.7 c -0.2,0.2 -0.5,0.6 -0.9,1.2 0.1,0 0.1,0.1 0.2,0.1 1.1,0.7 1.6,1.5 1.4,2.1 l -0.2,0.4 -0.3,0.3 c -0.2,0.4 -0.3,0.6 -0.3,0.6 0.4,0.4 0.8,0.6 1.4,0.5 0.4,0.2 0.7,0.4 1.1,0.7 1.7,3.9 3.4,7.7 5.2,11.2 l -0.4,0.4 c 0.8,0.6 1.1,1.1 0.9,1.4 l -1.1,1.3 c 0.7,0.7 1.3,1.3 1.9,1.6 l -1.1,-2.3 4.1,5.5 z"
   id="path274"
   style="fill:#58595b" />
	<path
   d="m 446.8,475.9 3,4.5 c 1.2,1.8 1.8,3.4 2.1,4.9 1.2,0.7 1.9,1.2 2.1,1.5 1.5,2.1 3.2,4.9 5.1,8.4 l -0.2,-1.3 4.5,6.7 5.8,9.2 -1.8,1.3 -5.7,-0.5 c -0.1,-0.3 -0.4,-0.4 -0.8,-0.3 l -1.3,0 c -0.6,0 -1,-0.2 -1.3,-0.6 l -6.5,-0.8 c -2.4,-0.2 -4.6,-0.1 -6.6,0.5 l 0.8,-1.8 c -0.2,-0.1 -1.1,-0.1 -2.7,0.1 -5.6,0.3 -9.9,-0.1 -12.9,-1.3 l -1.6,-0.6 c -0.7,-0.1 -1.2,-0.1 -1.6,0.1 l -2,-0.3 -0.3,0.2 c -0.9,-0.4 -2,-1 -3.8,-1.6 l -0.2,-0.2 -0.1,-0.1 0.2,0.1 c -0.8,0 -1.9,-0.1 -3.5,-0.2 l -0.9,0.5 0,0.5 c -0.5,0.3 -0.9,0.3 -1.1,-0.1 l -1.4,-0.3 -0.7,-0.5 c 0.2,-4.1 0.6,-7.7 1.1,-11 0.7,-0.5 1.3,-1.1 1.8,-2.1 l -1.2,-1 c -0.2,-0.6 -0.3,-0.9 -0.3,-0.9 l 2.3,-10.1 c 1.2,-5 1.4,-8.2 0.9,-9.4 l 1.3,-4.1 c 1.2,-0.5 1.8,-0.8 1.8,-0.8 0.7,-0.5 0.3,-1.4 -1.1,-2.5 -0.2,-0.2 -0.6,-0.6 -1.2,-1 0.8,-1.3 1.1,-2.7 0.9,-4.3 l 11,-0.6 -0.1,1.9 c -0.6,1.1 -1.2,5.6 -2,13.3 -0.7,6.8 -1.7,11 -2.8,12.4 l 1.5,1 c -1.5,2.6 -2.1,4.6 -1.8,6.2 0.3,0.8 0.5,1.9 0.7,3.5 l 0.2,0.2 c 0.1,0.1 0.2,0.2 0.3,0.3 l 0.2,0.2 1.4,-0.8 1.4,2.5 c 0.3,-0.3 0.8,-1 1.3,-1.7 l 17.3,2 -6.2,-8.1 c 0.5,-0.4 0.1,-1.1 -0.6,-2.8 -1.6,-0.6 -3.1,-1.7 -4.6,-3.3 l 4.5,-3.2 5.4,-3.8 z"
   id="path276"
   style="fill:#58595b" />
	<path
   d="m 527.2,444.9 c 1,0.1 1.6,0.8 2.2,1.8 -2.4,2.5 -4.9,5.6 -7.6,9.2 -0.6,0.7 -0.7,1.8 -0.3,3.3 -0.6,1.2 -1.3,2.3 -1.9,3.3 -0.2,0.2 -1,0.2 -2.2,0.3 -1.2,0 -1.9,0.2 -2.2,0.6 -1.1,1.5 -1.1,1.2 -0.8,3.1 -0.4,0.7 -0.8,1.6 -1.5,2.6 l -1.7,0.7 -1.2,3 c -0.5,0.2 -1,0.5 -1.5,1 -0.3,0.5 -0.4,1 -0.4,1.3 l 0.5,-0.5 -0.1,0 c -0.9,0.1 -1.6,0.4 -2,1 -0.5,0.7 -0.6,1.6 -0.4,2.7 l -0.8,1.1 -0.9,1.3 -0.3,-1.4 -1,0.1 c 0.1,0.1 0,-0.1 -0.4,-0.5 -0.7,-0.8 -0.9,-1.4 -0.8,-1.8 -0.7,0 -1.6,-0.1 -2.5,-0.5 -0.5,-0.7 -2.1,-2.2 -4.8,-4.7 -0.3,-1 -1,-1.8 -2,-2.6 -0.2,-0.2 -0.6,-0.3 -1.2,-0.6 l -1.2,-0.4 c 0.1,0.2 0.3,0.4 0.6,0.7 0.2,0.3 0.6,0.3 0.9,0.1 -0.1,0.1 -0.1,0.1 0,0.1 0,-0.1 -0.2,-0.2 -0.3,-0.5 l -0.9,-0.2 c -1,-0.7 -2.2,-1.7 -3.9,-2.8 -1.4,-0.9 -2.7,-1.9 -3.9,-2.9 -0.4,-0.7 -1.4,-1.5 -3,-2.5 -2.4,-1.6 -3.5,-2.2 -3.2,-2.1 -0.3,-0.2 -1.6,-2.2 -2.6,-2.8 -1.4,-0.9 -2.5,-1.5 -3.3,-1.7 -0.5,-0.4 -1,-0.8 -1.5,-1 0.1,-0.5 0.1,-1.4 0,-2.7 -0.1,-1 -0.6,-1.9 -1.4,-2.5 -1.4,-1.1 -3.5,-1.3 -6.3,-0.8 l -10.6,-7.4 0,-0.7 -0.9,-0.5 c -0.9,-0.5 -1.9,-1.3 -3,-2.2 l -4.4,-2.1 2.5,-3.6 c 0.7,-0.1 1.5,0.1 2.2,0.3 -0.4,-0.2 -0.1,-2.4 -0.7,-2.7 l 4.2,-5.5 c 2.7,2.2 5.3,4.2 7.8,6.1 l 0,0.1 c 0.4,1.3 0.9,2.2 1.4,2.6 0.7,0.5 1.5,0.7 2.4,0.5 l 2.1,1.8 c 3,3.1 5,4.8 5.9,4.9 1.5,0.4 3.3,1.5 5.5,3.1 3.3,2.5 4.9,3.8 4.8,3.9 0.1,-0.1 0,-0.1 -0.1,-0.2 2.2,1.6 4.5,3.4 7,5.4 l 1.9,2 -0.5,0.7 -1,-0.2 c -0.1,-0.2 -0.2,-0.2 -0.2,-0.3 l 1,1.6 c 0.3,0.4 2.6,-0.5 3,-0.2 0.9,0.5 1.4,0.8 1.5,0.9 0.5,0.4 1.9,1.5 4.1,3.2 2.1,1.7 3.5,2.8 4.1,3.2 0.5,0.4 0.4,1.7 0.4,1.7 0.1,0.1 0.3,0.1 0.4,0.1 1.6,-2.2 3.9,-5.4 7,-9.7 0.8,-0.2 1.4,-0.7 1.8,-1.3 0.4,-0.5 0.6,-1.2 0.7,-1.8 0.1,-0.1 0.2,-0.4 0.2,-0.8 0.1,-0.1 0.1,-0.1 0.1,-0.3 l 7.5,-10 c 3.2,2.1 5.1,4 5.3,5.9 l 2.4,-0.3 z"
   id="path278"
   style="fill:#58595b" />
	<path
   d="m 546.6,401.4 -1.6,1.6 1.2,0.1 -1.8,7.7 -8.2,-1.5 c 0,-0.1 -0.1,-0.2 -0.2,-0.2 -0.7,-0.4 -2.5,-0.9 -3,-0.9 -0.1,0.2 -0.6,0.4 -1.4,0.4 -0.9,1.1 -2,2.8 -3.1,5 -0.5,0.9 -0.7,1.7 -0.6,2.5 l -1.9,4.1 c -0.1,0 -0.2,0.2 -0.3,0.4 -1.1,2.1 -1.5,2.9 -1.3,2.6 l 0.8,0.7 c 0.2,1 1.2,2.1 3,3 0.7,0.3 2.1,2.3 2.7,2.5 l 2.7,2.7 -1.8,2.2 c -0.5,0 -1.2,0.7 -2.1,1.8 -0.2,0 -0.3,0.2 -0.4,0.5 0,0.3 -0.1,0.6 -0.2,0.8 -1.5,0.7 -2.2,1.2 -2.2,1.5 -0.2,0.2 -0.6,0.5 -1,0.7 l -0.5,0.3 c -0.1,0 -0.4,0.1 -0.6,0.4 l -10.3,-11 c -0.3,-1.7 -1.2,-2.8 -2.7,-3.3 l -6.6,-8 c -0.4,-1.1 -1.4,-2.6 -2.9,-4.5 -1.6,-1.9 -3,-3 -3.9,-3.4 l -1.2,-1.5 c 0.1,-0.5 0.3,-0.9 0.4,-1.2 l -1.6,0.1 c 0.4,-0.5 0.5,-0.9 0.4,-1.2 -0.1,-0.2 -0.4,-0.3 -0.8,-0.4 -1.1,-1.3 -1.6,-1.9 -1.5,-1.8 -0.3,0 -0.7,-0.1 -1.3,-0.2 -2.3,-2.6 -5.1,-5.4 -8.3,-8.4 l 0.3,-0.5 -0.6,-0.6 -0.6,-1.5 c 0,-0.1 0,-0.1 0,-0.1 -0.2,-0.1 -0.7,-0.1 -1.4,0 l -1.1,-1.1 -0.6,-0.1 c -1.1,-1.1 -2.1,-2 -2.9,-2.7 l 0.3,-0.8 c 0,0 0,0 -0.1,0 l 0.1,-0.2 c 0.1,-0.8 0.9,-0.8 2.6,0 l 2.3,1.2 c 0.9,0.3 1.8,0.3 2.6,-0.1 4.3,1.1 6.7,1.8 7.1,2.1 l 2.1,-0.7 0.2,0.8 0,0.1 c 0.4,0.1 0.7,0.1 1.1,-0.3 2.3,0.7 5.7,1.4 10.1,2.1 1,0.6 2.7,1.1 5.1,1.5 2.6,0.5 4.3,0.6 5.4,0.2 l 1.8,0.3 c 0.3,0.3 0.6,0.7 0.9,1.3 l 1.2,-0.7 c 1.8,0.4 2.7,0.5 2.6,0.5 0.2,0.1 0.4,0.3 0.5,0.5 l 0,-0.1 1.1,-0.6 c 4.3,0.6 8.3,0.9 11.8,1.2 l 0.2,0.5 0.8,0 0.2,-0.1 c 0.5,-0.3 0.9,-0.3 1.3,-0.1 0.2,0.1 0.5,0.3 0.8,0.6 l 0.6,0.5 c 0.6,-0.1 1,-0.5 1.4,-1.1 l 0.2,-0.2 c 0.9,0.1 2.7,0.3 5.6,0.5 l -0.9,3.6 z m -28.3,4.2 c -1,0.2 -1.9,0.1 -2.7,-0.3 -0.9,-0.5 -1.6,-0.7 -2,-0.8 -4.3,-0.7 -7.6,-1.3 -10,-1.6 1.5,1.3 3.7,3.4 6.6,6.2 0,0.1 0.9,1.1 2.6,2.7 l 0.3,0.3 0.1,-0.2 c 0.3,0.4 1.4,1.9 3.3,4.7 0.3,-0.9 0.7,-1.6 1.1,-2.3 -0.1,0 0.7,-1.5 2.3,-4.7 0.2,-0.3 0.7,-0.5 1.6,-0.4 l 0.4,0 -1.2,-1.1 c 0.5,-0.9 0.9,-1.5 1.1,-1.7 0.1,0 0.2,-0.2 0.3,-0.5 l -3.8,-0.3 z"
   id="path280"
   style="fill:#58595b" />
	<path
   d="m 546.8,359.3 c 0.2,1.1 0.2,1.8 -0.1,2.4 0,0.1 -0.1,0.2 -0.2,0.3 0,0.1 0.5,0.8 1.7,1.9 l 2.9,12.4 c 0.3,1 0,1.8 -0.9,2.3 l -0.3,0.2 c 0,0 0,0 0.1,0 l -0.1,0 2.1,1.8 -0.1,4.6 c -0.6,1.4 -0.4,2.6 0.3,3.7 l 0.5,2 -2.3,0.3 1,2.3 -7.8,-2.5 c -0.8,-0.3 -3.2,-1.2 -7.1,-2.7 -1.6,-1.3 -2.9,-2.1 -4.1,-2.3 -2.5,-0.5 -4.4,-0.9 -5.7,-1.4 -1.9,-0.7 -3.9,-1.6 -5.8,-3 -0.9,-0.3 -1.9,-0.5 -3.1,-0.6 -1.1,-0.7 -1.9,-0.9 -2.1,-0.9 l -0.1,0 -0.1,0.1 c -0.6,0.3 -1.5,-0.1 -3.1,-1.2 l 0.3,-0.3 -0.4,-0.1 -0.4,-0.2 c -1.1,-0.4 -1.6,-0.8 -1.2,-1.6 -0.4,-0.2 -1.5,0.6 -2.2,0.3 -0.3,-0.1 -0.6,-0.4 -1,-0.8 l -0.2,-0.2 c -0.1,-0.1 -0.1,-0.1 -0.1,-0.1 l -1.9,0.7 -11.5,-3.4 -1.3,-0.5 -0.7,-1.1 -2,-0.1 c -1.1,-0.7 -1.9,-0.9 -2.3,-1 -0.5,-0.1 -1.4,-0.6 -2.9,-1.6 0.8,-0.8 1.5,-1.9 2.3,-3 l 1.3,0.2 c 0,-0.3 0,-0.5 0,-0.6 0.2,-0.4 1,-1.1 2.3,-2.2 l 1.2,-1 0.7,-0.6 6,-7.3 1.8,-0.5 0.7,-1.2 0,0.1 c 0.2,-0.3 2.2,-1.9 6.2,-4.8 2.2,-1.7 4.9,-3.9 8.1,-6.7 0.3,1.5 0.9,3.1 1.8,4.8 0.9,1.7 1.5,2.9 1.6,3.6 0.5,0.9 2.1,2.8 1.2,6.8 l 1.3,-0.1 c 0.4,1 1,2.6 1.6,4.7 1.3,-1.4 3.5,-3 6.8,-5 3.1,-1.8 5,-3.3 5.9,-4.7 l 4,-2.2 c 1.6,-0.8 2.8,-1.8 3.7,-2.9 l 3.7,12.9 z M 513,356.1 c -0.3,0.4 -1.4,1.3 -3.4,2.9 -2.3,1.9 -3.5,2.9 -3.5,3 -0.2,0.3 -0.7,1.4 -1.3,1 l -0.1,0 0.3,-0.7 c -0.3,-0.1 -1.3,0.6 -1.4,0.9 l -0.8,0.8 c 1.2,0.2 2.9,0.6 5,1.1 l 0.5,0.4 0.1,0.1 0.4,0.2 c 0.1,-0.1 0.3,0 0.5,0.1 l 0.3,0 0.4,0.3 c 1.5,0.4 3.2,0.9 4.8,1.5 0.5,-1.3 0.6,-1.9 0.7,-1.7 0,-1 -0.2,-2.4 -0.8,-4.3 l -1.7,-5.6 z m 24.3,5.9 -5.8,4.9 c -0.1,0.1 -0.4,0.2 -0.6,0.1 l -0.3,-0.1 c -0.1,0.1 -0.3,0 -0.4,0 -0.9,0.2 -1.4,0.5 -1.5,0.9 0,-0.1 -0.3,0.5 -1,1.7 -0.5,0.9 -0.7,1.7 -0.5,2.4 l -1.7,0.1 c 2.2,1.1 4.3,1.8 6.5,1.9 3.1,1.4 4.6,2.2 4.7,2.2 0.8,0.3 1.6,0.2 2.5,-0.2 1.1,0.3 1.1,0.7 2.1,1.1 l -2.6,-11.3 -1.4,-3.7 z"
   id="path282"
   style="fill:#58595b" />
	<path
   d="m 560.4,310.4 -0.3,0.3 c 0.9,1.8 2.3,4.6 3.9,8.3 l 0.2,-0.8 c 1.2,2.1 2.8,5.3 5,9.6 2.1,4.3 3.1,7.3 3,9 l -9.7,5.2 -1.6,-5.4 c -0.6,-2 -1.5,-3.3 -2.7,-4 -1,-2.2 -1.8,-4.3 -2.4,-6.3 l 2.2,-0.5 -3.3,-0.9 c 0.1,-2 -0.6,-3.2 -2.1,-3.8 l -0.6,-2.3 -2.6,3.3 -2.1,0.1 c -0.4,0 -0.6,0.4 -0.5,0.9 -0.5,0.7 -1.2,0.9 -1.8,0.6 l -0.1,0.9 -2.5,1.8 -0.9,-1.2 c 0.2,-0.8 0.4,-1.6 0.7,-2.3 l -2.4,3.6 c -1,1.2 -2.1,2.2 -3.2,3 -1.2,0.7 -3,1.8 -5.4,3.5 l -1.2,-1.4 c -0.4,1 -0.9,2 -1.6,2.9 l -9,5.1 -2.3,-5.6 c -1,-2.4 -2.2,-3.9 -3.5,-4.7 l -0.7,-1.5 c 0.7,-1.1 1,-1.6 1,-1.5 l 0.1,-0.8 -3.3,-2.6 0.5,-0.9 c -0.9,-1.8 -2.4,-4.5 -4.6,-8.2 l 0.3,-1.6 -2.6,-1.8 1.4,-0.4 c -0.1,-0.1 -1.1,-0.4 -3,-1.1 l -0.1,-3 8.9,-5 2.2,0.9 2.4,4.6 c 0.6,1.2 1,2.6 1.1,4.3 0.9,0.7 1.6,1.7 2.1,2.8 0.2,0.5 0.4,1.1 0.7,1.6 l -0.9,2.1 c 0.4,0.6 0.6,1.2 0.8,1.9 l 0.1,0.3 0.3,-1.7 2.7,5.7 c 1.2,-1 2.7,-1.8 4.6,-2.5 1.8,-0.8 3.1,-1.3 3.7,-1.9 1.3,-1 2.4,-2.6 3.2,-4.9 l 1.6,1.2 c 1.9,-0.4 4.4,-0.8 4.5,-2.7 0.4,-0.4 2.5,-1.7 6.3,-3.8 l 1,0 -0.3,-0.6 c 0.6,-0.9 3.7,-1.7 5.1,-3.3 l 1.6,2.1 0.2,-1.9 0.3,0.4 0.1,-0.8 1.5,0.1 c 0,0 0.5,0 1.4,0.1 l 2.6,5.5 z"
   id="path284"
   style="fill:#58595b" />
</g>
</svg>